<?xml version="1.0" encoding="UTF-8" standalone="no"?>
<!DOCTYPE svg PUBLIC "-//W3C//DTD SVG 1.1//EN" "http://www.w3.org/Graphics/SVG/1.1/DTD/svg11.dtd">
<svg version="1.1" xmlns="http://www.w3.org/2000/svg" xmlns:xlink="http://www.w3.org/1999/xlink" preserveAspectRatio="xMidYMid meet" viewBox="0 0 640 640" width="640" height="640"><defs><path d="M296.38 27.54C294.38 39.39 290.17 42.5 285.63 35.52C281.97 29.97 273.33 26.98 259.8 26.65C250.83 26.43 247.17 30.53 255.37 31.64C272.66 33.96 276.65 51.92 259.91 51.92C243.29 51.92 227.77 61.34 216.58 78.19C211.7 85.5 206.83 91.26 205.72 90.93C202.5 90.16 201.62 78.52 204.61 74.97C205.94 73.31 206.27 71.87 205.27 71.87C204.17 71.87 207.05 69.21 211.59 65.99C216.14 62.78 219.9 59.23 219.9 58.24C219.9 57.24 222.34 56.35 225.34 56.35C228.33 56.35 231.43 55.24 232.32 53.8C233.43 51.92 231.65 51.59 225.78 52.58C221.35 53.25 217.69 53.47 217.69 52.92C217.69 50.92 228.33 46.49 236.53 45.16C237.12 45.05 240.08 44.54 245.4 43.61C240.34 43.47 237.53 43.4 236.97 43.38C224.45 42.94 212.7 50.15 201.28 65.11C195.74 72.53 192.09 78.52 193.31 78.52C194.52 78.52 195.52 77.52 195.52 76.3C195.52 75.08 196.52 74.08 197.74 74.08C198.96 74.08 199.95 76.08 199.95 78.52C199.95 81.4 198.51 82.95 195.74 82.95C192.97 82.95 190.65 85.39 189.09 89.82C187.43 94.59 185.66 96.36 183.33 95.47C181.34 94.7 178.68 96.25 176.46 99.69C174.02 103.23 170.81 105.12 166.71 105.12C158.61 105.12 149.42 112.65 148.53 120.08C147.86 126.18 147.75 126.18 124.59 128.06C98.43 130.05 96 131.16 99.87 139.7C101.98 144.35 101.98 146.01 99.65 148.01C94.55 152.44 87.9 161.31 91.12 159.42C93.56 157.98 93.89 158.98 92.67 164.08C88.24 181.7 87.68 195.22 90.68 205.64C92.45 211.52 93.56 218.5 93.22 221.16C92.89 223.71 93.34 227.03 94.22 228.47C95.11 229.91 93.89 235.45 91.67 240.77C82.36 262.39 79.81 308.27 87.79 310.27C95.33 312.15 101.76 334.54 97.77 345.4C95 352.94 96.33 361.25 99.99 359.03C102.53 357.48 105.08 367.45 103.31 372C102.53 373.99 100.98 375.54 99.87 375.54C98.66 375.54 98.43 374.44 99.32 373C100.32 371.44 99.87 371 98.32 372C94 374.66 95.33 383.97 100.21 385.52C102.65 386.3 105.42 386.41 106.52 385.74C110.51 383.3 118.38 391.39 117.05 396.71C115.5 402.59 126.58 416.22 134.79 418.55C137.34 419.32 140.55 422.43 141.88 425.42C143.32 428.52 147.09 431.51 150.52 432.29C153.96 433.07 158.39 435.28 160.5 437.06C162.6 438.83 165.82 439.83 167.59 439.05C170.36 438.05 170.58 438.83 168.81 443.37C164.93 453.57 165.93 456.67 171.69 452.02C178.01 446.92 162.94 461.44 155.07 467.98C151.97 470.53 146.53 474.52 143.1 476.62C139.55 478.84 134.56 483.16 131.9 486.27C129.13 489.37 126.92 490.59 126.92 489.04C126.81 487.37 125.7 486.82 124.37 487.6C121.49 489.37 129.58 497.46 134.34 497.46C136.12 497.46 137.89 495.24 138.33 492.47C138.78 489.26 140.77 487.26 144.1 486.71C146.98 486.38 150.3 483.72 151.63 480.83C153.74 476.18 155.07 475.74 165.15 476.51C178.79 477.73 178.56 477.4 175.79 487.82C173.47 496.46 177.35 514.97 180.67 511.53C181.56 510.65 182.22 511.53 182.22 513.53C182.22 515.41 183.55 517.52 185.33 518.07C187.54 518.96 187.99 517.96 187.21 514.75C185.44 507.99 194.52 513.42 199.95 522.4C203.83 528.82 203.83 529.49 200.51 531.93C197.41 534.25 197.29 535.25 199.73 538.24C203.17 542.35 199.95 543.12 195.97 539.13C193.86 537.03 193.31 537.36 193.31 540.24C193.31 542.35 194.3 544.01 195.63 544.01C197.18 544.01 197.18 545.34 195.74 548.11C194.19 550.88 194.3 552.99 196.08 554.76C197.96 556.64 197.85 557.31 195.52 557.31C193.19 557.31 193.08 557.97 194.97 559.86C196.85 561.74 196.52 563.74 193.75 568.06C191.64 571.27 191.2 573.05 192.75 572.05C194.3 571.05 195.52 571.38 195.52 572.71C195.52 573.93 194.41 575.04 193.08 575.04C191.42 575.04 191.53 576.26 193.53 578.59C195.97 581.58 195.97 582.58 192.97 584.68C191.09 586.12 189.98 588.34 190.42 589.56C190.87 590.89 188.43 593.22 184.99 594.77C164.05 604.3 158.95 607.96 154.63 616.49C147.98 629.46 148.09 630.46 156.29 630.46C162.49 630.46 163.6 629.68 164.05 624.69C164.71 615.49 171.58 605.85 176.68 606.52C181.89 607.29 196.3 593.55 194.64 589.34C194.08 587.79 195.41 586.12 197.74 585.46C208.6 582.58 211.92 530.04 203.28 497.46C203.18 497.09 202.7 495.24 201.84 491.92C204.57 495.24 206.08 497.09 206.38 497.46C208.93 500.45 210.93 504.11 211.04 505.44C211.04 506.77 213.14 509.76 215.69 512.09C218.35 514.42 223.34 520.51 226.89 525.72C230.43 530.82 234.09 535.03 234.98 534.81C239.52 534.14 242.07 535.47 242.07 538.47C242.07 540.57 244.18 541.79 247.61 541.79C250.72 541.79 253.15 542.79 253.15 544.01C253.15 545.23 255.15 546.22 257.59 546.22C260.03 546.22 262.02 547.22 262.02 548.44C262.02 549.66 263.57 550.66 265.35 550.66C267.23 550.66 268.67 552.43 268.67 554.54C268.78 557.86 269 557.97 270.89 555.09C272.22 552.99 273.1 552.76 273.1 554.43C273.1 555.98 274.54 556.64 276.32 555.98C278.09 555.2 282.86 555.76 286.85 557.09C290.84 558.42 301.59 559.97 310.79 560.74C319.87 561.41 327.63 562.41 328.08 562.85C328.52 563.29 332.95 562.18 337.83 560.52C342.71 558.75 347.58 557.86 348.58 558.42C349.58 559.08 351.02 558.64 351.79 557.31C352.57 556.09 355.01 555.09 357.33 555.09C359.55 555.09 362.1 553.1 362.88 550.66C364.54 545.56 371.85 540.9 375.18 543.01C376.4 543.68 377.17 543.56 376.73 542.46C376.4 541.46 377.17 540.35 378.39 539.8C379.61 539.35 382.6 535.81 385.04 531.82C393.02 518.74 398.23 511.98 406.65 503.67C411.2 499.12 414.97 494.47 414.97 493.36C414.97 492.25 416.41 490.14 418.07 488.7C421.62 485.82 425.39 493.14 422.73 497.46C421.95 498.68 422.5 499.68 423.94 499.68C425.94 499.68 425.94 500.45 423.94 502.89C422.39 504.77 421.84 508.76 422.5 512.31C423.28 515.75 424.06 522.73 424.17 527.94C424.5 536.8 424.83 537.25 430.26 535.92C438.46 534.03 440.9 531.04 433.48 532.15C427.71 532.92 427.6 532.81 432.04 530.82C434.92 529.6 437.8 525.61 438.8 521.4C440.46 515.3 441.79 514.08 447.11 513.97C450.54 513.86 453.87 512.64 454.31 511.2C454.87 509.76 458.19 508.54 461.74 508.54C465.95 508.54 468.17 507.43 468.17 505.22C468.17 503.44 470.16 500.67 472.6 499.12C477.92 495.91 478.25 491.7 473.71 487.15C470.16 483.61 469.05 478.62 472.27 480.61C473.37 481.28 473.71 479.39 473.15 476.29C471.93 470.19 474.26 469.42 480.25 473.85C483.57 476.29 483.79 477.51 481.58 481.72C480.14 484.38 479.36 487.82 479.91 489.26C480.47 490.7 482.13 489.26 483.68 486.04C485.12 482.83 488.67 478.95 491.44 477.51C496.32 474.85 502.63 464.65 500.53 462.66C499.97 462.1 497.98 464.43 496.1 467.87C494.21 471.52 492.66 472.74 492.44 470.86C492.33 468.53 491.66 468.98 490.33 471.97C488.89 475.4 488.45 474.52 488.34 467.53C488.23 459 488.45 458.89 491.77 463.1C494.99 466.98 495.21 467.09 493.99 463.43C492.11 458.11 494.65 453.79 497.2 457.89C498.64 460.11 499.09 459.67 499.2 456.12C499.2 453.02 500.97 450.91 504.52 450.02C512.72 448.03 513.5 442.27 506.62 435.06C502.3 430.52 501.53 428.74 503.96 428.74C505.85 428.74 509.84 426.64 512.72 424.09C515.6 421.43 520.15 417.99 522.81 416.22C534.55 408.35 541.09 382.19 531.23 382.19C528.9 382.19 528.35 383.64 529.23 387.51C532.12 398.82 500.75 418.33 492.66 410.23C488.78 406.36 490.11 404.14 494.54 406.91C500.75 410.79 511.17 401.48 512.17 391.06C512.5 386.74 514.16 381.75 515.71 379.98C517.26 378.09 519.26 372.66 520.15 367.79C521.03 362.91 523.03 356.81 524.69 354.38C526.24 351.83 528.9 345.62 530.34 340.52C533.45 330.33 535.44 329.11 539.1 335.09C540.87 337.97 541.09 336.2 539.98 327.89C538.99 320.46 535.99 313.26 530.9 305.94C530.38 305.23 527.79 301.64 523.14 295.19C526.6 295.86 528.52 296.23 528.9 296.3C532.12 296.85 534.66 296.41 534.66 295.3C534.66 294.19 536.44 293.75 538.54 294.42C542.87 295.75 549.74 292.42 547.41 290.09C546.63 289.21 548.85 283.11 552.4 276.57C556.17 269.48 558.27 262.94 557.38 260.72C554.39 252.63 546.97 244.88 540.98 243.55C540.57 243.46 538.5 243.01 534.78 242.22C537.37 237.09 538.81 234.25 539.1 233.68C543.42 225.26 543.42 224.93 539.21 215.5C538.94 214.87 537.57 211.69 535.11 205.97C535.11 212.29 535.11 215.8 535.11 216.5C535.22 229.25 530.34 237.56 522.81 237.56C519.04 237.56 517.71 236.56 518.48 234.46C520.59 228.8 517.04 222.93 514.38 227.7C513.16 229.91 509.73 232.57 506.74 233.79C503.85 234.9 501.42 236.67 501.42 237.78C501.42 240.22 511.94 243.21 514.6 241.55C515.6 240.89 517.04 241.77 517.71 243.55C518.48 245.54 517.04 247.31 514.05 248.31C511.39 249.09 508.62 250.64 507.95 251.64C507.29 252.63 503.3 253.63 499.09 253.85C488.12 254.3 483.46 255.85 485.01 258.4C485.79 259.73 490.11 259.95 495.54 259.06C496.15 258.96 499.22 258.44 504.74 257.51C501.61 260.24 499.88 261.75 499.53 262.05C496.76 264.6 492.99 266.15 491.22 265.49C486.56 263.61 487.34 272.14 492.22 276.68C496.21 280.12 496.65 280.01 501.64 273.8C506.51 267.6 507.07 267.37 510.73 270.92C516.49 276.68 520.15 279.45 523.69 280.78C526.24 281.78 526.02 282.11 523.14 282.23C520.48 282.45 519.7 283.56 520.7 286.1C521.81 289.1 521.25 289.54 517.82 288.32C513.94 286.99 513.83 287.1 517.49 289.87C519.59 291.54 521.36 293.53 521.36 294.31C521.36 294.97 519.59 295.08 517.49 294.42C513.83 293.2 513.83 293.31 517.49 295.64C523.25 299.4 522.14 301.73 515.05 300.73C510.5 300.07 508.29 300.84 507.29 303.5C505.63 307.94 507.51 311.93 510.39 310.04C511.61 309.38 512.61 309.6 512.72 310.6C512.72 311.6 513.16 314.14 513.61 316.25C514.6 321.57 510.61 323.57 508.73 318.58C507.84 316.36 505.96 313.26 504.41 311.71C502.86 310.15 502.19 307.16 502.97 305.06C503.96 302.29 502.86 302.62 498.42 306.61C491.88 312.59 494.1 319.13 501.75 316.69C504.63 315.81 505.85 316.47 505.85 319.02C505.85 321.02 504.85 322.01 503.63 321.24C502.41 320.46 501.42 320.79 501.42 321.9C501.42 326.45 511.17 326.67 515.27 322.24C522.81 314.14 524.36 320.02 520.26 340.63C517.82 353.27 514.6 352.94 515.93 340.19C517.04 330.99 516.6 329 513.72 329C511.61 329 510.28 330.99 510.17 333.98C510.17 334.32 510.17 335.98 510.17 338.97C507.64 335.98 506.24 334.32 505.96 333.98C503.52 330.99 501.19 329.88 500.31 331.21C499.53 332.43 499.75 333.43 500.75 333.54C501.75 333.54 500.09 334.87 497.2 336.53C492.66 339.08 491.44 338.97 487.78 335.31C482.68 330.22 482.57 326.78 487.56 326.67C490.55 326.67 490.11 325.89 485.9 323.45C478.58 319.24 475.81 319.35 479.25 323.45C481.58 326.23 481.58 326.67 478.92 325.67C476.7 324.78 475.7 326.23 475.48 330.55C475.37 333.98 474.59 340.52 473.71 345.07C472.27 352.27 472.49 353.27 475.48 352.16C478.03 351.16 479.47 352.38 480.47 356.48C482.02 362.47 483.24 363.13 489.11 360.92C492.33 359.7 492.33 359.14 488.78 356.37C486.56 354.71 485.79 353.49 487.01 353.6C492.22 354.27 494.21 353.05 496.65 347.73C498.09 344.62 500.2 342.63 501.42 343.4C502.63 344.18 503.74 342.96 503.85 340.74C503.96 338.08 504.41 337.75 505.18 339.75C505.85 341.41 504.19 345.62 501.64 349.17C501.32 349.6 499.73 351.74 496.87 355.6C499.86 355.66 501.53 355.7 501.86 355.71C506.51 355.71 506.62 355.93 503.19 358.59C500.31 360.69 499.97 362.13 501.86 364.02C505.07 367.23 498.87 376.99 491.33 380.42C485.34 383.19 483.57 389.62 489.45 387.29C491.99 386.41 492.77 387.07 492.22 389.95C491.33 394.72 484.13 396.27 480.47 392.5C479.03 391.06 478.25 388.4 478.92 386.63C479.8 383.75 479.47 383.75 475.92 386.63C472.16 389.62 471.93 389.62 473.26 386.07C474.04 383.97 473.71 382.19 472.49 382.19C471.38 382.19 470.38 380.64 470.38 378.87C470.38 376.32 471.82 375.88 475.92 376.87C482.02 378.43 483.02 375.88 479.14 368.67C477.81 366.35 475.81 364.91 474.7 365.68C473.6 366.35 472.6 364.79 472.6 362.25C472.6 354.49 467.17 361.69 466.5 370.34C466.17 374.44 463.95 381.53 461.52 386.07C459.08 390.62 457.08 396.6 457.08 399.37C457.08 406.47 450.77 415.44 445.78 415.44C441.46 415.44 439.79 409.79 443.78 408.46C444.89 408.02 447.77 400.48 449.99 391.62C452.21 382.75 454.53 375.77 455.09 376.1C455.64 376.43 455.31 375.66 454.31 374.55C451.76 371.33 452.32 368.45 455.2 370.23C456.97 371.33 457.3 369.45 456.2 363.8C455.2 358.7 455.64 355.37 457.3 354.27C458.86 353.38 459.41 353.6 458.52 355.04C457.75 356.26 459.19 357.81 461.74 358.48C465.4 359.47 465.95 358.92 464.73 356.04C463.84 353.93 462.85 349.61 462.51 346.29C462.18 343.07 461.29 339.3 460.52 337.97C459.74 336.75 460.3 335.65 461.74 335.65C463.29 335.65 463.84 334.98 463.07 334.2C461.41 332.54 469.83 324.56 473.15 324.56C474.37 324.56 474.82 322.57 474.15 320.13C472.82 315.03 473.49 314.81 479.58 318.13C483.02 319.91 484.79 319.8 486.67 317.8C488.56 315.7 488.56 315.36 486.67 316.47C482.13 319.02 477.03 315.47 477.03 309.82C477.03 306.28 477.92 304.95 479.58 305.94C481.02 306.83 481.69 306.28 481.13 304.72C480.69 303.28 479.47 302.17 478.58 302.29C477.59 302.4 475.26 300.96 473.26 298.96C470.83 296.52 469.27 296.19 468.17 297.96C467.17 299.51 465.17 298.18 462.62 294.19C458.86 288.54 458.86 288.21 462.4 291.2C464.62 292.98 468.39 294.53 470.94 294.75C474.93 294.97 475.04 294.75 471.82 292.42C469.83 290.98 468.83 289.21 469.5 288.43C470.27 287.77 466.95 286.55 462.29 285.77C449.99 283.67 448.66 282.89 454.31 281.23C459.85 279.57 460.85 276.79 456.53 275.02C454.31 274.13 454.42 273.91 456.64 273.8C458.19 273.69 459.96 275.02 460.74 276.91C462.07 280.45 468.17 281.56 468.17 278.24C468.17 277.02 465.06 273.14 461.41 269.37C456.2 264.16 454.87 263.61 455.97 266.93C456.75 269.48 456.42 271.36 454.98 271.36C453.76 271.36 452.65 269.7 452.65 267.6C452.65 265.49 449.55 260.61 445.67 256.62C439.35 250.08 439.02 249.2 442.23 245.98C444.12 244.1 446.33 240.55 447.11 238.11C447.88 235.79 449.55 234.01 450.77 234.24C452.1 234.57 453.87 232.68 454.87 230.02C456.31 226.37 455.97 225.48 452.98 225.59C448.99 225.92 440.79 237.23 442.56 240.11C443.12 241 442.34 241.77 440.79 241.77C439.35 241.77 438.13 240 438.13 237.78C438.13 235.57 439.35 233.68 440.79 233.68C442.23 233.68 444.12 231.46 445 228.69C445.89 225.92 447.66 222.15 449.21 220.38C451.32 217.72 450.88 216.06 446.66 212.18C443.12 208.74 441.57 208.19 441.57 210.41C441.57 212.07 443.23 214.4 445.11 215.5C447.99 217.06 447.22 217.83 441.46 218.94C433.25 220.6 424.17 214.4 424.61 207.53C424.83 205.2 423.06 203.54 419.84 202.98C415.63 202.43 415.19 201.76 417.29 199.1C418.74 197.44 418.96 196 417.85 196C416.63 196 415.74 194.23 415.74 192.12C415.74 181.92 414.75 176.05 413.08 176.05C411.97 176.05 411.64 178.49 412.2 181.59C414.3 192.67 411.09 198.88 403.77 197.44C398.79 196.44 397.23 196.89 397.23 199.55C397.23 201.43 398.01 202.43 398.9 201.87C399.78 201.32 400.67 203.2 400.89 206.2C401.45 215.39 392.91 211.96 385.49 199.99C383.38 196.66 381.72 192.01 381.72 189.57C381.72 187.13 380.72 184.58 379.39 183.7C378.17 182.92 377.73 180.15 378.39 177.49C379.5 173.72 379.28 173.39 377.51 176.05C374.74 180.04 374.29 189.79 376.84 192.78C380.06 196.55 383.93 207.08 382.05 207.08C379.17 207.08 371.85 189.35 372.41 183.59C372.63 180.04 371.63 178.27 369.42 178.27C366.64 178.27 366.31 179.93 367.53 186.58C371.3 206.64 377.62 214.51 392.69 217.94C401.89 219.94 410.31 227.03 410.53 232.68C410.53 236.56 393.8 236.45 390.7 232.68C389.14 230.8 386.37 229.25 384.6 229.25C377.95 229.25 369.19 217.17 365.2 202.21C362.99 194 360.33 187.8 359.22 188.46C358.22 189.13 357.33 188.24 357.33 186.58C357.33 184.8 355.23 183.59 352.35 183.59C348.14 183.81 347.36 182.7 347.58 176.6C347.8 168.18 347.03 167.85 341.82 173.83C338.05 178.15 337.94 178.04 335.28 168.73C333.17 161.09 331.62 159.09 327.74 159.31C323.64 159.42 322.98 158.32 323.2 151.67C323.75 134.71 324.2 132.16 328.52 127.28C333.17 121.96 333.84 122.85 333.06 134.49C332.84 137.81 333.62 140.58 334.73 140.58C335.94 140.58 336.94 143.35 337.05 146.68C337.39 159.98 337.61 161.2 339.71 159.09C345.37 153.44 344.7 136.93 338.16 125.95C334.73 119.97 331.84 114.21 331.84 113.1C331.84 107.56 310.56 96.47 304.58 98.8C294.83 102.68 283.74 102.68 285.29 98.91C286.29 96.25 285.52 96.36 281.42 99.35C278.64 101.35 274.99 103.68 273.1 104.45C262.91 109.11 247.83 133.93 255.26 133.93C256.48 133.93 255.04 136.37 252.27 139.47C249.39 142.47 246.06 145.02 244.73 145.02C243.4 145.02 241.29 146.79 240.08 148.9C238.08 152.22 237.75 151.89 237.75 146.68C237.64 143.35 236.75 140.58 235.75 140.58C233.09 140.58 235.31 129.17 238.75 125.07C240.3 123.18 242.74 119.19 244.18 116.2C246.61 110.99 246.5 110.88 243.29 114.98C239.96 119.19 239.85 119.19 239.85 114.43C239.85 108.33 236.64 108.33 224.78 113.98C215.69 118.42 212.7 126.73 219.35 128.95C220.79 129.39 221.35 127.95 220.68 125.4C219.35 120.41 227 114.98 232.32 117.09C233.98 117.75 235.42 117.2 235.42 115.76C235.42 114.43 235.98 113.87 236.75 114.54C238.19 116.09 231.76 126.18 229.44 126.18C228.66 126.18 227.88 128.5 227.77 131.38C227.55 134.27 225.67 137.59 223.56 138.81C221.35 140.03 217.69 144.13 215.36 147.9C215.08 148.36 213.68 150.69 211.15 154.88C211.41 150.29 211.56 147.74 211.59 147.23C211.92 142.91 213.37 138.14 214.92 136.59C218.35 132.94 218.46 130.28 215.36 128.28C212.48 126.62 206.38 134.04 208.27 137.04C208.93 138.14 208.38 138.37 207.05 137.48C205.72 136.7 205.16 134.38 205.94 132.49C207.82 127.39 202.06 129.72 198.96 135.15C197.74 137.59 196.19 139.92 195.52 140.58C191.98 144.13 189.32 151.78 190.31 155.55C191.53 160.31 178.9 174.83 175.35 172.61C174.35 171.95 170.7 174.05 167.48 177.27C163.38 181.48 162.38 183.59 164.27 184.8C165.93 185.8 166.37 188.68 165.49 192.34C164.71 195.56 163.16 197.66 162.05 197C160.94 196.33 160.06 196.89 160.06 198.33C160.06 199.77 158.61 200.32 156.84 199.66C154.96 198.99 154.07 199.55 154.63 201.1C155.96 204.53 145.87 216.28 142.32 215.5C140.88 215.17 138.11 217.28 136.01 220.27C134.01 223.26 133.57 224.93 135.12 224.04C136.67 223.04 141.88 222.27 146.76 222.15C151.52 222.15 156.62 220.71 158.06 219.05C159.5 217.28 161.5 215.95 162.72 215.95C163.82 215.95 161.83 219.61 158.06 224.04C154.4 228.58 151.85 233.02 152.52 234.01C153.63 235.9 150.08 236.9 145.65 236.01C144.43 235.79 141.77 235.45 139.77 235.23C137.67 235.12 136.12 234.01 136.34 232.91C137 229.58 126.14 229.58 119.71 232.91C115.95 234.79 113.29 235.12 112.4 233.68C111.62 232.46 111.84 231.35 112.84 231.13C113.84 230.91 115.61 230.58 116.83 230.25C118.05 230.02 120.6 229.58 122.37 229.47C125.37 229.25 125.37 228.92 122.37 227.03C119.6 225.26 119.71 224.93 123.04 224.81C125.25 224.81 126.58 224.04 126.03 223.15C125.48 222.27 126.47 220.16 128.14 218.61C129.8 217.06 131.24 216.61 131.24 217.72C131.24 221.71 148.31 203.54 149.64 198.22C149.73 197.85 150.17 196 150.97 192.67C148.44 195.8 147.04 197.54 146.76 197.88C144.32 200.65 141.66 202.43 140.55 201.87C139.55 201.21 136.34 203.65 133.35 207.19C130.35 210.85 126.36 213.73 124.37 213.73C122.37 213.73 119.49 215.17 117.94 217.06C116.39 218.83 113.51 220.38 111.51 220.38C109.41 220.38 106.3 221.6 104.64 223.15C102.87 224.7 103.2 223.82 105.31 221.27C107.41 218.61 109.63 214.17 110.18 211.29C111.18 206.08 119.16 197.55 125.03 195.44C127.25 194.56 127.36 193.78 125.25 191.45C122.15 188.13 110.07 192.23 112.29 195.78C112.95 196.89 112.07 198.33 110.29 198.99C104.97 200.99 104.2 196.55 109.07 192.01C111.73 189.57 113.06 186.36 112.29 184.25C111.18 181.59 112.07 181.04 115.95 182.14C119.93 183.14 120.6 182.7 119.49 179.71C118.6 177.38 119.16 176.05 121.15 176.05C122.93 176.05 126.03 173.17 128.14 169.73C131.57 163.86 132.35 163.53 138.55 165.85C143.65 167.74 145.43 167.63 146.2 165.52C146.65 163.97 148.53 162.75 150.3 162.75C151.97 162.75 153.41 161.64 153.41 160.42C153.41 159.09 154.4 158.65 155.62 159.42C156.84 160.2 157.84 159.76 157.84 158.43C157.84 157.21 156.62 156.1 155.07 156.1C153.18 155.99 153.41 155.32 155.62 153.88C158.28 152.11 157.95 151.78 153.96 151.67C151.19 151.67 148.97 150.67 148.97 149.45C148.97 148.23 151.52 147.23 154.51 147.23C159.06 147.23 160.06 148.34 160.06 153.11C160.06 156.43 160.83 158.32 161.72 157.43C162.6 156.54 163.38 154.1 163.38 152.11C163.38 147.68 170.92 148.12 174.57 152.66C177.12 155.99 184.44 152.22 184.44 147.68C184.44 146.35 185.77 144.46 187.32 143.46C191.98 140.58 207.49 120.41 204.06 121.74C197.07 124.4 190.2 112.99 194.64 105.89C194.9 105.47 196.23 103.37 198.62 99.58C195.17 102.7 193.25 104.44 192.86 104.78C187.21 109.77 180.01 110.66 179.56 106.34C179.12 102.68 189.76 96.14 196.74 95.59C202.95 95.14 203.28 95.59 203.28 104.01C203.28 121.3 210.71 121.85 215.8 104.9C221.12 87.16 230.54 83.39 232.54 98.36C233.43 104.45 234.53 106.78 236.31 105.56C237.64 104.45 242.29 102.24 246.5 100.57C250.83 98.91 256.81 95.25 259.8 92.37C262.91 89.6 267.56 86.72 270.33 85.94C273.1 85.28 274.77 83.84 274.1 82.73C273.44 81.62 274.32 81.29 276.1 82.06C277.87 82.73 281.42 80.96 284.08 78.07C288.07 73.86 288.62 73.75 287.29 77.19C285.85 80.85 286.51 81.29 291.94 80.18C295.27 79.52 300.92 79.85 304.47 80.85C308.57 81.95 310.79 81.84 310.79 80.29C310.79 79.07 312.67 78.52 315 79.07C327.08 82.29 323.64 76.08 309.57 69.32C284.41 57.02 281.97 55.69 281.97 53.25C281.97 52.03 283.08 52.14 284.63 53.69C287.95 57.02 291.61 57.24 289.62 54.02C288.84 52.69 289.51 51.92 291.17 52.25C292.83 52.58 296.49 51.59 299.26 50.03C315.11 41.28 341.15 44.83 352.68 57.24C359.33 64.33 358.89 64.33 345.37 57.46C334.17 51.81 320.87 50.48 303.58 53.36C292.61 55.13 293.05 56.24 308.68 64C315.88 67.66 321.87 71.2 321.87 72.09C321.87 72.87 323.75 74.08 325.97 74.64C328.3 75.3 329.96 74.53 329.96 72.87C329.96 71.2 327.52 69.32 324.53 68.54C320.54 67.55 319.65 66.55 321.43 64.77C323.2 63 325.42 63.33 329.52 65.99C332.62 68.1 335.17 68.99 335.28 67.99C335.28 67.1 336.83 69.1 338.6 72.42C341.38 77.3 347.91 80.4 351.24 78.19C353.79 76.41 361.32 83.62 360.22 86.61C359.11 89.6 359.99 90.04 364.87 89.16C369.53 88.16 370.63 88.71 369.64 91.15C368.97 92.93 368.42 94.7 368.42 95.14C368.42 97.25 359.66 93.15 358.66 90.49C358 88.83 356.34 87.38 355.01 87.38C353.68 87.38 353.23 88.27 353.9 89.38C356.23 93.15 336.28 86.83 332.62 82.73C328.19 77.63 326.19 77.52 320.65 81.84C318.21 83.73 317.32 85.06 318.54 84.84C323.2 83.84 338.72 92.26 344.59 98.8C347.91 102.57 350.69 105.01 350.69 104.12C350.69 103.34 352.24 104.12 354.01 105.89C357.78 109.66 358.44 112.76 355.12 110.66C347.14 105.67 361.1 124.96 370.3 131.5C370.72 131.8 372.83 133.31 376.62 136.04C376.02 132.71 375.69 130.87 375.62 130.5C374.29 123.4 378.39 123.52 383.05 130.61C385.04 133.6 387.37 135.71 388.15 135.15C389.03 134.6 391.14 135.15 392.8 136.15C395.46 137.81 395.35 138.37 392.14 139.59C387.48 141.36 387.15 149.45 391.69 149.45C395.68 149.45 396.13 153.11 392.36 154.44C390.25 155.1 390.25 155.66 392.36 156.99C393.8 157.87 395.02 157.54 395.02 156.1C395.02 154.44 396.24 154.44 399.45 156.1C402.44 157.65 403.88 160.75 403.88 165.52C403.88 170.84 404.55 171.84 406.43 169.95C407.87 168.51 408.87 164.41 408.76 160.75C408.65 155.88 409.43 154.44 411.75 155.32C413.53 155.99 414.97 157.65 414.97 158.87C414.97 160.2 415.52 160.75 416.19 160.09C416.74 159.42 416.19 156.1 414.86 152.55C412.97 147.57 412.09 146.9 410.42 149.56C408.87 151.78 408.54 150.45 409.09 144.68C409.87 136.15 391.14 113.98 383.05 113.98C376.62 113.98 376.18 113.76 374.51 109.33C373.63 106.78 372.08 105.34 370.97 106C369.97 106.67 369.64 104.45 370.3 101.13C370.97 97.8 371.85 96.58 372.3 98.47C373.07 101.79 395.13 117.2 394.91 114.43C394.8 111.77 389.03 105.12 387.92 106.34C387.26 106.89 385.38 105.78 383.71 103.68C381.27 100.79 381.27 99.8 383.38 99.02C384.93 98.47 385.49 97.03 384.71 95.59C383.82 94.26 386.26 95.36 390.14 98.13C393.91 100.91 397.68 104.12 398.45 105.23C399.12 106.45 400.45 107 401.33 106.45C402.22 105.89 404.44 106.34 406.21 107.44C408.21 108.66 408.43 109.55 406.77 109.55C401.11 109.55 416.74 122.3 427.16 126.06C433.25 128.28 440.01 131.94 442.23 134.27C444.34 136.48 447.11 138.48 448.33 138.59C449.44 138.81 451.32 139.03 452.43 139.14C453.54 139.36 455.31 140.36 456.31 141.47C457.42 142.58 454.2 142.8 448.77 141.91C439.68 140.58 439.35 140.69 442.01 145.02C443.78 147.79 446.22 149.01 448.77 148.23C451.43 147.34 452.21 147.9 451.43 149.89C449.88 154.22 440.01 154.55 438.46 150.34C437.8 148.45 436.14 147.57 434.92 148.34C433.48 149.23 433.81 151.44 436.02 154.55C437.8 157.1 439.35 161.42 439.35 164.08C439.35 166.74 440.79 170.06 442.67 171.62C444.45 173.06 445.33 175.38 444.56 176.6C443.56 178.15 445 178.49 448.44 177.49C451.32 176.71 454.53 176.05 455.42 176.05C456.31 176.05 457.08 174.5 457.08 172.5C457.08 170.29 455.86 169.4 453.76 170.18C447.11 172.72 440.57 168.51 444.67 164.41C447.99 161.09 447.99 160.64 444.34 158.54C440.79 156.43 440.9 156.21 445.33 156.21C448.11 156.1 450.54 157.76 451.1 159.98C452.1 163.53 452.21 163.53 452.43 159.87C452.54 157.65 453.43 156.32 454.42 156.99C455.42 157.54 455.86 155.1 455.31 151.56C454.53 146.01 455.09 145.02 459.08 145.02C461.74 145.02 464.4 143.46 465.17 141.69C465.84 139.81 467.39 138.37 468.72 138.37C469.94 138.37 469.61 139.92 467.94 141.91C465.06 145.46 469.72 151.67 475.26 151.67C476.26 151.67 477.03 153.22 477.03 155.1C477.03 158.21 476.59 158.09 473.15 154.77C469.61 151.22 469.27 151.22 468.17 156.32C467.28 159.87 466.28 160.75 465.17 158.87C464.29 157.32 462.29 156.1 460.85 156.1C459.3 156.1 459.52 156.99 461.52 158.32C463.73 159.76 463.95 160.42 462.07 160.53C460.52 160.53 459.3 161.64 459.3 162.97C459.3 164.52 461.18 164.97 464.29 164.08C476.37 160.53 489.45 160.2 484.9 163.53C480.8 166.52 480.91 166.63 486.01 166.19C494.77 165.63 505.74 171.28 505.85 176.38C505.85 177.16 503.63 177.38 500.86 176.82C496.21 175.72 496.21 176.05 501.97 181.26C508.29 187.13 510.17 190.9 505.29 187.91C503.74 186.91 501.53 186.02 500.31 185.91C499.09 185.69 496.87 185.47 495.32 185.25C491.99 184.8 491.55 176.94 494.77 174.94C495.98 174.16 496.98 172.61 496.98 171.51C496.98 168.62 488.67 168.85 487.67 171.73C487.23 173.06 483.68 174.16 479.8 174.28C475.15 174.39 472.6 175.61 472.6 177.6C472.6 179.82 471.05 180.37 467.61 179.6C464.84 178.82 463.84 178.93 465.4 179.6C466.95 180.26 467.72 181.7 467.06 182.7C466.39 183.7 467.72 184.25 469.83 183.92C471.93 183.59 474.7 184.8 476.03 186.47C477.81 188.91 479.69 189.13 484.46 187.24C489.22 185.47 491.66 185.69 496.1 188.57C502.52 192.78 502.08 196.44 494.99 197.44C486.79 198.77 481.35 202.54 487.56 202.54C491.44 202.65 492.55 203.98 492.55 208.19C492.55 211.18 491.44 213.73 490.11 213.73C488.78 213.73 488.23 215.28 489 217.17C489.78 219.38 488.56 221.16 485.46 222.27C482.46 223.48 481.58 224.59 483.24 225.59C484.9 226.7 485.12 228.92 483.68 232.46C481.47 238.34 491.66 239 498.31 233.46C499.97 232.13 501.42 231.69 501.42 232.68C501.42 233.79 504.41 230.58 507.95 225.7C511.61 220.71 517.15 215.5 520.37 214.06C525.58 211.74 526.13 210.52 524.69 204.2C523.8 200.32 522.92 191.57 522.69 184.8C522.47 172.61 516.6 159.09 512.72 161.53C511.72 162.2 508.73 160.98 506.07 158.87C503.52 156.76 498.76 153 495.65 150.56C483.13 140.8 482.46 139.7 488.34 138.26C488.69 138.17 490.47 137.77 493.66 137.04C490.2 136.11 488.28 135.59 487.89 135.48C483.13 134.27 482.35 133.05 483.13 127.73C484.35 119.86 478.69 102.68 474.04 99.69C468.94 96.47 466.84 100.02 471.16 104.67C476.03 110.1 475.81 121.08 470.72 127.39C470.44 127.73 469.07 129.43 466.61 132.49C465.82 128.44 465.37 126.18 465.28 125.73C463.62 117.09 458.97 112.43 449.32 109.77C445.11 108.66 440.13 106.11 438.24 104.23C436.36 102.35 431.04 100.24 426.49 99.46C421.95 98.8 416.08 97.25 413.3 96.14C404.44 92.37 398.45 90.16 390.58 87.16C379.94 83.28 363.98 69.98 363.98 65.11C363.98 61.01 347.69 43.05 343.92 43.05C342.82 43.05 339.82 41.06 337.39 38.62C333.73 34.96 329.96 34.19 316.77 34.19C315.68 34.19 310.25 34.19 300.48 34.19C300.61 27.47 300.69 23.74 300.7 22.99C300.81 10.36 294.72 3.15 284.19 3.37C278.98 3.49 279.09 3.71 285.74 6.59C295.05 10.69 298.15 16.9 296.38 27.54ZM279.75 46.38C278.53 47.82 278.2 49.7 279.09 50.48C279.86 51.25 279.31 51.92 277.87 51.92C276.43 51.92 274.88 50.7 274.43 49.15C274.1 47.6 272.66 43.16 271.44 39.17C268.56 30.42 271.11 29.86 277.43 37.84C280.53 41.83 281.3 44.49 279.75 46.38ZM243.4 64C242.29 64 238.41 66.88 234.87 70.21C231.21 73.53 227 76.3 225.34 76.3C223.56 76.3 222.79 77.63 223.45 79.4C224.12 81.18 222.56 84.72 219.9 87.38C213.92 93.37 211.04 91.26 216.69 85.06C218.91 82.62 221.01 78.96 221.23 77.08C222.45 69.43 238.63 59.57 256.48 55.58C258.92 55.13 261.13 54.58 261.47 54.36C261.8 54.25 262.02 54.58 262.02 55.24C262.02 56.46 246.39 63.78 243.4 64ZM262.02 64.89C257.81 67.55 252.82 69.65 250.94 69.54C249.16 69.54 254.15 66.22 262.02 62.11C270 58.01 277.43 55.24 278.53 55.91C279.75 56.57 278.2 57.9 275.21 58.68C272.22 59.45 266.34 62.23 262.02 64.89ZM318.54 60.34C319.65 63.33 319.32 63.56 317.1 61.34C315.55 59.79 312.45 58.57 310.23 58.57C307.9 58.57 306.69 57.57 307.46 56.35C308.24 55.13 313.56 54.25 319.21 54.47C326.08 54.69 327.52 55.13 323.31 55.69C318.54 56.46 317.44 57.57 318.54 60.34ZM318.99 114.87C318.21 116.87 318.65 118.42 319.87 118.42C321.09 118.42 321.54 119.41 320.76 120.63C319.98 121.85 320.43 122.85 321.76 122.85C323.31 122.85 323.2 124.29 321.54 127.06C320.1 129.39 317.44 130.72 315.66 130.05C313.22 129.17 312.89 129.94 314 133.6C314.89 136.59 314.55 138.37 313 138.37C311.67 138.37 311.01 137.59 311.45 136.7C312.01 135.82 311.67 133.05 310.68 130.61C309.23 127.06 308.9 126.95 308.68 129.83C308.68 131.94 305.13 137.15 300.81 141.47C293.05 149.56 287.73 152.55 293.39 145.79C295.38 143.24 295.6 141.8 293.94 141.25C292.61 140.8 294.83 136.81 298.93 132.27C303.03 127.84 306.35 122.19 306.24 119.64C306.24 115.31 306.02 115.31 303.14 119.08C300.92 122.07 299.81 122.41 299.04 120.19C298.37 118.64 297.71 120.08 297.71 123.4C297.49 127.73 296.38 129.5 293.61 129.28C291.28 129.17 290.84 128.72 292.5 128.06C294.05 127.39 295.27 125.84 295.27 124.62C295.27 123.29 293.83 123.52 291.83 125.18C289.95 126.73 288.95 129.28 289.51 130.83C290.06 132.38 289.17 134.82 287.4 136.26C284.85 138.37 283.96 138.03 282.75 134.93C281.3 131.27 277.76 136.15 277.65 141.8C277.65 142.36 276.32 144.24 274.88 145.9C271.55 149.45 265.68 148.01 268.01 144.24C268.89 142.8 269.34 139.47 269 136.81C267.89 128.28 278.2 113.98 283.96 116.2C284.41 116.42 285.41 115.76 286.18 114.76C290.95 108.22 310.12 104.9 317.21 109.33C318.88 110.44 319.65 112.88 318.99 114.87ZM169.25 124.51C172.8 128.06 166.48 130.5 158.95 128.61C153.07 127.06 151.97 122.96 155.73 116.09C159.06 109.88 166.71 110.44 166.71 116.87C166.71 119.64 167.92 123.18 169.25 124.51ZM186.66 124.51C186.66 126.73 187.76 126.84 190.98 125.18C198.29 121.19 200.18 122.63 195.08 128.39C191.64 132.38 189.76 133.16 188.54 131.27C187.65 129.72 186.21 129.17 185.33 130.05C182.89 132.6 171.14 122.85 171.14 118.31C171.14 112.99 172.03 112.99 180.23 117.75C183.77 119.86 186.66 122.96 186.66 124.51ZM261.47 133.93C258.92 133.93 259.47 128.5 262.46 125.51C263.9 124.07 264.24 122.85 263.13 122.85C260.69 122.85 269.11 116.42 271.66 116.31C272.66 116.2 273.1 116.98 272.66 117.86C269.78 124.07 262.8 133.93 261.47 133.93ZM118.49 148.45C115.72 147.23 113.95 144.91 114.5 143.46C115.17 141.8 114.17 141.36 111.96 142.13C109.52 143.13 108.85 142.69 109.96 140.92C110.85 139.47 113.73 138.92 116.39 139.59C119.16 140.25 125.25 138.81 130.13 136.37C139.22 131.83 146.76 130.39 146.76 133.38C146.53 140.25 125.25 151.67 118.49 148.45ZM151.97 137.04C151.97 135.04 154.29 133.93 158.61 133.93C163.27 133.93 164.6 134.71 163.16 136.15C159.39 139.92 151.97 140.47 151.97 137.04ZM115.5 156.88C101.54 173.72 97.99 179.82 99.1 184.92C100.1 189.35 99.87 189.79 97.88 187.13C96.11 184.58 95.88 185.47 96.88 191.01C98.43 198.77 94.78 201.21 92.56 194C89.79 185.25 102.09 149.89 106.97 152.77C108.08 153.55 109.07 153.11 109.07 151.78C109.07 148.78 111.96 148.78 115.06 151.89C116.72 153.55 116.83 155.32 115.5 156.88ZM326.41 172.28C329.18 184.92 337.94 196.66 346.36 199.32C350.02 200.54 350.8 202.09 349.69 206.2C347.14 216.72 365.43 241.22 380.06 246.76C386.59 249.2 399.01 246.87 406.32 241.77C413.42 236.78 415.41 237.12 422.84 244.54C426.38 247.98 430.82 250.42 432.59 249.86C435.14 249.09 435.03 249.53 432.26 251.3C427.82 254.18 429.26 260.39 439.68 281.45C446.33 295.19 446.66 297.3 446.55 326.78C446.44 335.87 446.44 347.84 446.55 353.38C446.66 364.35 444.67 373.44 440.24 381.75C438.8 384.74 438.02 388.62 438.68 390.29C439.35 392.17 438.68 393.17 437.02 392.83C435.36 392.5 433.7 394.05 433.14 396.27C432.59 398.82 433.25 399.93 434.58 399.04C436.14 398.04 436.8 404.14 436.69 417.66C436.47 428.97 435.58 436.5 434.58 434.95C433.37 432.96 432.81 433.51 432.7 436.95C432.7 439.49 431.48 442.15 429.93 442.71C428.38 443.15 429.26 443.26 431.92 442.82C437.35 441.93 440.01 446.48 436.69 451.13C434.92 453.57 434.69 453.46 435.69 450.47C436.36 448.36 436.14 446.14 435.03 445.48C431.7 443.37 428.6 449.69 427.82 459.78C427.38 466.32 426.16 469.53 424.39 469.2C422.84 468.86 421.62 470.08 421.62 471.86C421.62 473.63 419.51 476.29 416.85 477.62C412.53 479.95 412.2 479.73 413.19 474.52C413.86 471.41 413.42 467.65 412.42 465.98C410.64 463.21 409.31 468.31 410.31 473.85C410.53 474.96 409.54 477.07 408.21 478.73C406.88 480.39 406.32 482.72 406.99 483.83C408.87 486.82 402.33 491.47 398.34 490.03C395.9 489.04 395.02 490.25 395.02 494.24C395.02 501.12 392.14 501.23 387.7 494.47C384.6 489.7 384.6 488.92 387.81 485.71C390.36 483.16 390.7 481.39 389.03 479.28C384.38 473.52 383.27 462.1 387.26 460.55C389.59 459.67 390.03 458.67 388.59 457.67C387.26 456.89 385.93 453.57 385.71 450.24C385.38 446.92 384.38 444.26 383.49 444.26C381.61 444.26 381.5 444.59 380.39 458.67C379.94 463.54 378.06 468.64 376.07 470.08C373.63 471.86 372.74 475.29 373.18 480.39C373.52 484.6 372.52 489.7 370.86 491.7C368.53 494.47 368.42 495.91 370.63 498.57C372.85 501.23 372.63 502.11 369.75 503.22C367.86 504 366.2 506.99 366.2 509.87C366.2 512.75 365.09 515.19 363.87 515.19C362.54 515.19 362.1 516.08 362.77 517.3C363.43 518.41 363.1 519.96 361.77 520.73C360.55 521.51 359.55 523.28 359.55 524.72C359.55 526.28 360.44 526.05 361.77 524.06C363.43 521.4 363.87 521.84 363.98 526.05C363.98 529.05 363.43 530.82 362.65 530.15C361.88 529.38 358.89 531.37 356 534.48C350.69 540.24 350.69 540.24 350.69 535.25C350.69 531.71 351.68 530.6 354.01 531.48C355.89 532.26 357.33 531.82 357.33 530.6C357.33 529.49 356.45 528.49 355.23 528.49C354.01 528.49 354.01 525.83 355.12 521.84C357.33 514.19 349.91 507.21 346.03 513.31C344.59 515.52 344.15 515.52 344.04 513.53C344.04 511.98 341.93 510.76 339.38 510.76C336.17 510.76 335.06 509.76 335.94 507.43C336.72 505.66 336.28 504.11 335.06 504.11C333.95 504.11 332.95 505.22 332.95 506.44C332.95 507.77 331.95 508.21 330.74 507.43C329.52 506.66 326.97 506.99 324.97 508.1C321.09 510.2 340.49 524.06 347.36 524.06C349.24 524.06 350.69 525.06 350.69 526.28C350.69 527.49 349.8 528.49 348.69 528.49C347.58 528.49 347.14 530.26 347.69 532.48C348.25 534.7 346.7 538.91 344.26 541.9C340.6 546.34 339.71 546.67 339.71 543.45C339.6 539.02 330.29 538.91 328.52 543.34C327.85 544.89 326.19 545.34 324.64 544.34C321.43 542.35 319.32 528.49 322.31 528.49C323.86 528.49 323.75 521.18 322.09 512.98C321.87 512.31 320.87 513.31 319.65 515.19C318.54 516.97 318.1 520.51 318.77 522.95C319.76 526.61 319.54 526.83 317.44 524.06C315.44 521.4 314.67 521.29 313.67 523.62C312.78 525.83 311.45 525.61 308.02 522.51C303.58 518.63 303.58 518.63 306.57 523.5C309.23 527.83 309.12 529.27 306.02 534.48C302.36 540.35 290.84 544.23 290.84 539.57C290.84 538.13 289.62 538.24 287.73 540.02C286.07 541.57 285.18 543.79 285.85 544.89C286.51 546 285.96 546.22 284.52 545.34C283.08 544.45 281.97 542.35 281.97 540.57C281.97 538.58 279.75 537.36 276.32 537.36C272.55 537.36 270.11 535.7 268.78 532.37C268.66 532.04 268.03 530.38 266.9 527.38L264.68 532.92L262.46 538.47C261.53 534.88 261.02 532.88 260.91 532.48C260.14 529.16 257.81 526.16 255.81 525.83C249.83 524.72 250.38 508.54 256.37 508.54C258.81 508.54 262.46 507.43 264.24 506.1C266.9 504.33 266.56 504.11 262.8 505.11C259.36 506.1 256.81 504.88 253.71 500.89C253.41 500.53 251.93 498.68 249.27 495.35C249.01 498.94 248.86 500.94 248.83 501.34C248.61 504.66 248.28 510.32 248.28 513.75C248.17 518.07 247.5 519.07 246.28 517.08C244.84 514.86 244.4 515.19 244.29 518.41C244.29 521.51 243.62 522.06 241.85 520.29C240.08 518.52 240.3 516.41 242.29 512.64C243.95 509.76 245.28 506.77 245.28 505.99C245.4 505.11 246.06 503.78 246.95 503C247.72 502.11 247.5 499.01 246.39 496.13C245.06 492.58 245.17 490.81 246.73 490.81C248.06 490.81 248.61 489.59 248.06 488.04C247.5 486.49 245.95 485.49 244.62 485.82C241.85 486.38 234.2 475.85 236.09 473.96C236.75 473.3 239.3 473.85 241.85 475.18C246.17 477.51 246.28 477.29 243.95 472.08C242.18 468.31 239.63 466.43 236.09 466.43C232.54 466.43 231.32 465.54 232.32 463.88C233.2 462.44 233.98 456.23 234.09 450.13C234.31 440.38 234.87 439.05 239.19 438.72C241.85 438.5 243.51 439.16 242.96 440.27C242.29 441.27 243.4 442.71 245.4 443.48C248.39 444.59 248.5 445.26 246.17 446.7C243.84 448.14 244.29 449.69 248.28 453.57C253.15 458.34 253.6 458.45 256.26 454.79C259.8 450.13 262.35 449.69 260.69 454.01C260.03 455.9 261.13 457.67 263.57 458.34C273.55 461.11 283.41 462.77 287.84 462.21C290.5 461.99 293.27 462.77 294.05 464.1C294.83 465.32 297.93 466.43 300.92 466.43C303.91 466.43 306.35 467.53 306.35 468.75C306.35 470.08 307.9 469.64 309.79 467.76C313.11 464.43 327.19 463.43 331.84 466.09C336.5 468.86 339.27 468.09 340.38 463.77C341.04 461.33 342.59 460 343.92 460.77C349.13 463.99 365.54 449.47 375.07 433.29C376.62 430.63 377.84 431.07 381.5 435.5C381.8 435.87 383.31 437.68 386.04 440.94C386.04 437.81 386.04 436.07 386.04 435.73C386.15 431.85 387.04 430.85 389.7 431.85C395.79 434.17 391.91 414.78 383.93 402.81C380.06 397.16 376.84 390.84 376.62 388.62C376.51 386.52 375.73 385.08 375.07 385.52C374.29 385.96 371.85 383.97 369.64 380.98C367.42 377.98 364.65 375.54 363.54 375.54C362.43 375.54 359.88 373.99 358 372.11C355.23 369.23 354.12 369.12 352.68 371.44C351.35 373.55 348.8 372 343.04 365.57C342.51 364.98 339.85 362.02 335.06 356.7C337.12 361.89 338.26 364.77 338.49 365.35C340.38 370.23 342.93 375.32 344.26 376.99C345.59 378.54 345.92 381.09 345.14 382.64C344.37 384.19 345.48 383.19 347.8 380.42C353.12 373.88 356.34 375.32 367.2 389.07C376.4 400.7 380.28 412.23 372.63 405.25C370.3 403.14 366.98 402.26 364.43 403.14C361.77 403.92 359.66 403.36 358.89 401.37C358.22 399.71 354.56 397.71 350.57 396.94C344.92 395.83 343.7 394.61 344.7 391.06C346.03 385.85 325.08 384.3 320.1 389.29C316.99 392.39 316.44 398.6 319.43 396.71C326.19 392.61 341.38 393.61 342.59 398.27C344.04 403.7 342.37 406.58 340.05 402.81C338.38 400.15 330.4 399.93 328.41 402.59C326.75 404.8 312.67 405.25 307.68 403.14C304.36 401.81 303.8 402.03 305.36 404.58C306.8 407.02 306.35 407.02 303.14 404.36C300.81 402.48 298.48 401.37 297.71 401.92C297.04 402.37 294.83 399.82 292.94 396.38C288.95 389.07 281.86 387.29 272 391.06C266.79 393.06 266.12 393.94 268.78 395.61C271.44 397.27 271.33 397.6 268.01 397.71C265.9 397.71 263.57 399.15 262.8 401.04C261.47 404.69 255.37 405.69 255.37 402.26C255.37 401.15 252.6 400.48 249.27 400.93C245.95 401.26 242.51 400.59 241.74 399.37C238.97 394.94 231.99 400.15 228.44 409.35C223.34 422.32 221.68 435.39 225 435.5C226.44 435.5 225.34 437.5 222.45 439.94C218.57 443.04 218.13 444.26 220.68 444.26C222.56 444.26 224.67 443.26 225.45 442.04C226.22 440.82 227.77 439.83 228.99 439.83C231.43 439.83 229.55 457.23 226.67 460.88C222.01 466.87 222.45 473.3 227.33 471.75C231.54 470.42 231.76 470.64 228.99 473.96C226.78 476.62 226.55 479.06 228 482.61C229.21 485.27 230.1 490.7 229.99 494.69C229.88 498.68 230.77 501.89 231.99 501.89C233.09 501.89 232.1 503.33 229.77 505C224.89 508.65 218.91 505.55 220.79 500.45C221.46 498.79 220.57 497.46 218.91 497.46C217.02 497.46 216.25 495.91 217.02 493.03C217.69 490.48 217.13 488.59 215.58 488.59C214.14 488.59 213.7 487.48 214.47 486.27C217.24 481.61 210.82 470.86 205.27 470.86C202.28 470.86 199.95 471.97 199.95 473.19C199.95 474.52 200.95 474.96 202.17 474.18C206.05 471.75 204.5 475.96 199.4 481.61C196.63 484.6 195.63 486.38 197.18 485.49C201.17 483.27 202.73 488.92 200.18 495.8C198.51 500.12 196.85 501.23 193.42 500.34C188.1 499.01 187.32 490.14 191.53 480.83C193.64 476.07 193.53 474.63 190.98 472.97C188.43 471.3 188.65 470.86 192.2 470.75C195.41 470.53 195.74 470.19 193.31 469.2C189.54 467.76 183.44 461.99 185.66 461.99C186.54 461.99 186.1 460.66 184.77 459C183.33 457.34 182.89 455.34 183.77 454.57C184.55 453.79 183.88 453.13 182.33 453.13C180.78 453.13 180.12 451.69 180.78 449.8C181.56 447.92 181 443.71 179.78 440.38C177.35 434.06 175.9 425.42 174.69 409.57C174.24 404.58 173.13 399.26 172.25 397.71C171.36 396.27 171.69 394.28 173.13 393.39C175.13 392.17 174.91 391.06 172.36 388.96C170.47 387.4 168.92 384.41 168.92 382.42C168.92 380.31 167.81 377.54 166.59 376.32C163.16 372.88 160.28 339.97 162.83 334.32C164.27 331.1 164.05 328 162.38 324.9C160.83 321.79 160.72 320.13 162.16 320.13C163.49 320.13 164.27 313.26 164.16 302.95C163.93 286.1 169.03 269.81 176.02 265.49C177.46 264.71 177.46 263.61 176.13 262.72C172.8 260.5 170.81 246.87 173.91 247.54C175.35 247.87 176.9 245.87 177.35 243.1C177.9 239.11 177.35 238.45 174.02 239.67C170.47 241 170.36 240.66 173.02 237.45C175.79 234.12 175.13 232.79 170.81 233.35C170.03 233.46 169.92 231.58 170.47 229.14C171.14 226.81 172.69 224.81 173.91 224.81C175.24 224.81 175.13 223.71 173.69 221.82C172.25 220.16 171.91 218.16 172.8 217.17C173.69 216.28 174.57 214.62 174.8 213.51C174.91 212.4 175.24 210.96 175.57 210.41C175.9 209.74 176.35 208.52 176.68 207.64C179.12 199.32 183 191.57 184.66 191.57C185.77 191.57 186.43 190.68 186.1 189.57C185.77 188.57 188.54 184.69 192.2 181.04C195.85 177.38 200.62 172.28 202.73 169.73C207.16 164.19 210.71 163.64 212.37 168.07C213.7 171.62 223.34 170.73 228.33 166.63C229.99 165.3 236.42 164.08 242.74 163.97C249.05 163.86 256.37 162.64 258.92 161.2C262.57 159.09 264.46 159.2 268.34 161.86C271.11 163.86 273.1 164.19 273.1 162.86C273.1 161.31 274.43 161.2 276.98 162.53C286.62 167.74 297.49 170.29 297.49 167.29C297.49 162.97 304.69 158.21 309.12 159.54C312.45 160.64 313.11 160.31 311.78 157.98C310.68 156.1 311.56 156.32 314.33 158.54C316.66 160.53 319.65 161.75 321.09 161.2C322.76 160.64 324.75 164.97 326.41 172.28ZM420.18 206.97C416.52 207.08 419.07 215.5 423.72 218.83C427.6 221.49 429.04 229.25 425.83 229.25C424.83 229.25 421.28 225.81 417.85 221.49C414.41 217.28 410.42 213.73 408.87 213.73C406.88 213.73 406.43 211.85 407.54 207.86C408.54 203.76 408.21 202.43 406.43 203.54C404.99 204.42 403.88 204.09 403.88 202.76C403.88 199.66 406.43 199.77 415.3 203.65C419.4 205.42 421.62 206.97 420.18 206.97ZM430.82 240.33C432.26 240.33 432.92 240.89 432.15 241.55C430.26 243.55 418.96 237.01 412.86 230.47C408.21 225.48 407.87 224.26 410.64 222.6C412.86 221.16 414.19 221.49 414.97 223.6C415.52 225.26 418.85 229.69 422.17 233.46C425.5 237.23 429.49 240.33 430.82 240.33ZM131.24 239.22C130.02 238.45 129.02 238.89 129.02 240.22C129.02 241.44 130.24 242.66 131.79 242.77C150.75 244.43 154.18 243.66 161.16 236.67C163.93 233.9 165.38 233.68 167.37 235.68C169.37 237.67 168.92 238.56 165.49 239.44C163.05 240.11 160.06 242.77 158.84 245.43C157.17 249.42 154.74 250.31 145.98 250.64C140.11 250.75 134.12 252.08 132.68 253.52C130.69 255.51 131.46 255.85 136.23 254.63C140.33 253.63 144.21 254.41 147.98 256.84C152.41 259.73 154.4 259.95 156.73 258.06C158.5 256.62 160.83 256.07 162.05 256.84C163.38 257.62 163.82 255.74 163.16 252.08C163.09 251.68 162.72 249.69 162.05 246.09C164.78 249.55 166.29 251.47 166.59 251.86C172.58 259.5 172.36 261.06 165.26 259.73C161.16 258.84 157.95 259.95 154.63 263.27C151.74 266.15 146.87 268.15 142.21 268.26C138 268.37 132.13 269.37 129.02 270.37C124.15 271.92 123.81 271.7 126.36 268.59C128.69 265.82 128.69 264.94 126.36 264.16C122.82 262.83 115.72 266.27 115.72 269.37C115.72 270.59 112.95 274.13 109.63 277.24C106.3 280.34 102.31 285.99 100.98 289.87C98.66 295.86 98.32 296.19 98.21 291.76C97.99 285.88 101.09 279.23 107.19 272.69C109.41 270.26 111.29 267.26 111.18 265.93C111.18 264.71 109.74 265.49 107.97 267.82C106.19 270.14 103.42 271.36 101.43 270.59C98.88 269.59 97.99 270.81 97.88 275.35C97.66 280.45 97.44 280.67 96 277.02C94 271.92 99.76 255.29 102.98 257.29C104.2 258.06 104.09 259.5 102.65 260.95C99.54 264.05 99.43 269.15 102.42 269.15C103.64 269.15 104.64 267.15 104.64 264.71C104.64 262.28 105.64 260.28 106.86 260.28C108.08 260.28 109.07 259.17 109.07 257.95C109.07 256.62 108.19 256.18 107.08 256.84C105.97 257.51 104.53 256.51 103.86 254.74C103.09 252.85 104.42 250.53 107.08 249.09C109.85 247.54 111.18 245.32 110.29 243.21C109.3 240.55 110.51 240 116.61 240.77C120.82 241.22 123.81 240.89 123.15 239.89C122.59 238.89 123.26 238.11 124.59 238.11C125.92 238.11 126.58 237.34 126.03 236.34C125.37 235.45 126.81 234.68 129.13 234.68C131.57 234.68 133.46 236.01 133.46 237.56C133.46 239.22 132.46 240 131.24 239.22ZM552.18 265.6C552.06 269.48 551.73 269.26 549.85 264.16C548.63 260.83 546.75 258.06 545.75 258.06C544.86 258.06 543.42 256.51 542.76 254.74C540.87 249.97 543.42 250.64 548.3 256.18C550.51 258.84 552.29 263.05 552.18 265.6ZM139.66 277.57C137.56 279.68 137.67 280.23 140 280.23C141.99 280.23 141.21 282.23 137.78 285.88C133.35 290.54 133.12 291.31 136.67 289.98C139.55 288.88 140.33 289.1 139.22 290.98C138.33 292.31 138.67 293.53 140 293.53C141.21 293.53 142.32 294.53 142.32 295.75C142.32 296.97 140.88 297.96 139 297.96C135.89 297.96 134.68 300.73 135.45 305.39C135.67 306.5 134.56 306.83 132.9 306.28C131.02 305.5 129.8 306.83 129.58 309.82C129.36 312.37 127.58 315.7 125.48 317.25C121.93 319.8 121.93 320.13 125.37 321.46C129.36 323.01 130.35 330.1 126.81 332.32C123.59 334.32 124.04 342.3 127.36 342.3C129.24 342.41 129.02 343.07 126.81 344.51C124.37 346.06 124.26 346.62 126.36 346.73C128.03 346.73 128.69 347.73 127.91 349.06C125.92 352.16 138.44 349.06 140.66 345.84C141.55 344.51 142.32 345.84 142.43 348.95C142.66 354.04 142.88 353.93 145.32 347.39C148.2 339.52 152.63 334.09 154.63 336.09C156.07 337.53 151.3 346.95 147.86 349.5C146.53 350.5 146.65 351.16 148.31 351.16C149.86 351.16 150.52 352.6 149.75 354.49C149.08 356.37 147.09 357.81 145.43 357.81C143.76 357.81 142.32 359.03 142.32 360.36C142.32 361.8 139.66 360.58 136.56 357.59C131.24 352.82 130.8 352.71 132.02 356.7C132.79 359.14 132.46 362.47 131.46 364.13C128.69 368.67 121.38 366.24 120.6 360.47C120.16 357.81 118.94 356.04 117.94 356.7C116.83 357.37 115.28 356.7 114.39 355.26C113.4 353.71 113.73 353.27 115.39 354.27C118.05 355.93 119.05 350.72 116.5 348.17C115.72 347.39 114.95 343.85 114.84 340.19C114.73 336.09 115.39 334.43 116.72 335.76C119.82 338.86 122.93 338.31 120.82 335.09C119.82 333.54 118.94 329.77 118.94 326.67C118.83 323.57 117.94 319.69 116.94 318.02C115.83 316.25 115.83 315.47 117.05 316.14C118.16 316.8 121.04 315.36 123.48 312.81C127.03 309.27 127.14 308.6 124.26 309.71C122.15 310.38 120.05 309.71 119.49 308.16C117.94 304.28 120.27 293.53 122.59 293.53C123.7 293.53 124.59 292.31 124.59 290.98C124.59 284.77 113.51 299.18 113.4 305.5C113.17 311.6 109.85 322.9 109.07 320.13C108.85 319.46 108.3 314.48 107.74 309.05C107.19 303.5 106.3 297.85 105.75 296.3C105.19 294.75 106.19 293.53 107.97 293.53C109.74 293.53 111.84 290.76 112.62 287.43C115.72 274.8 117.72 272.69 122.59 277.13C126.47 280.56 127.14 280.67 129.58 277.57C133.46 272.69 142.32 269.59 142.32 273.14C142.32 274.13 141.1 276.13 139.66 277.57ZM537.1 284.77C541.87 288.43 541.98 288.99 538.54 290.32C532.89 292.42 528.24 289.98 529.12 285.33C529.57 283.11 530.01 280.12 530.01 278.68C530.12 277.02 531.78 276.57 534 277.35C536.77 278.46 536.99 279.12 534.78 279.79C532.67 280.56 533.33 282 537.1 284.77ZM145.98 304.61C143.32 304.61 142.32 305.72 143.1 307.83C143.87 309.93 143.21 310.6 141.21 309.82C139.55 309.16 138.78 307.16 139.55 305.17C140.44 302.62 140 302.17 137.89 303.5C136.01 304.72 135.56 304.39 136.56 302.73C138.44 299.63 142.32 299.51 146.76 302.4C149.53 304.17 149.42 304.5 145.98 304.61ZM488.12 346.06C482.13 344.51 482.46 346.4 488.67 348.83C492.66 350.5 492.88 350.94 489.67 351.05C484.57 351.16 477.03 347.28 477.03 344.4C477.03 343.29 480.58 342.3 484.79 342.3C489.11 342.3 492.55 343.4 492.55 344.73C492.55 346.17 490.55 346.73 488.12 346.06ZM142.21 371.11C143.43 371.11 144.54 372.55 144.54 374.44C144.54 376.21 143.32 377.76 141.77 377.76C139.66 377.87 139.66 378.2 141.88 379.65C144.21 381.09 144.1 382.08 141.33 384.3C138.44 386.74 137.89 386.52 137.89 383.52C137.89 378.87 134.23 378.98 131.46 383.86C129.36 387.29 129.13 387.18 129.13 382.75C129.02 379.98 128.03 377.76 126.81 377.76C125.59 377.76 124.59 376.1 124.59 374.21C124.59 371.22 125.14 371.11 127.91 373.33C130.24 375.21 131.24 375.32 131.24 373.55C131.24 372.22 132.79 371.11 134.56 371.11C136.45 371.11 137.89 370.11 137.89 368.9C137.89 367.68 139 366.68 140.22 366.68C141.55 366.68 141.99 367.68 141.21 368.9C140.44 370.11 140.88 371.11 142.21 371.11ZM121.49 379.76C123.48 383.64 124.48 388.18 123.81 389.84C123.15 391.62 123.81 393.5 125.25 394.05C127.03 394.83 127.14 395.16 125.37 395.27C124.04 395.38 121.71 393.94 120.16 392.17C117.94 389.51 117.94 388.84 120.27 388.84C122.26 388.84 121.93 387.63 119.38 384.74C117.39 382.53 115.72 379.53 115.72 377.98C115.72 376.54 114.84 375.88 113.73 376.54C111.51 377.87 108.63 372.22 110.51 370.34C112.29 368.67 120.05 369.56 118.94 371.33C118.38 372.11 119.6 375.99 121.49 379.76ZM494.1 386.52C493.32 383.64 494.43 382.19 497.76 381.53C500.42 380.98 502.52 380.42 502.63 380.31C502.63 380.09 502.63 381.86 502.63 384.3C502.63 389.95 495.54 391.84 494.1 386.52ZM162.83 391.62C166.82 397.71 171.36 417.66 168.81 417.66C166.04 417.66 160.06 408.35 160.06 404.14C160.06 402.14 158.61 399.26 156.73 397.71C154.29 395.61 153.41 395.61 153.41 397.6C153.41 399.04 151.63 400.04 149.53 399.82C142.88 399.15 141.1 399.93 144.43 402.03C147.2 403.81 147.09 404.36 143.65 405.69C137.45 408.13 135.45 402.37 140.55 396.49C143.65 393.06 146.76 391.73 150.41 392.39C155.18 393.28 155.62 392.95 153.52 389.07C150.3 382.97 150.75 380.31 154.29 384.97C155.84 387.07 157.73 388.29 158.28 387.63C158.95 386.96 160.94 388.73 162.83 391.62ZM284.96 403.03C283.85 401.7 281.42 400.59 279.42 400.59C275.32 400.7 274.32 415.33 278.2 417.99C279.42 418.77 279.64 420.54 278.76 421.98C277.54 423.87 276.43 423.87 273.99 421.98C271.77 420.1 270.89 419.99 270.89 421.87C270.89 423.2 267.56 424.31 263.35 424.31C259.25 424.31 252.27 425.86 247.83 427.64C243.51 429.52 239.74 430.74 239.52 430.41C238.19 427.64 238.63 419.88 240.19 419.88C241.18 419.88 242.07 420.87 242.07 422.09C242.07 423.42 243.84 423.2 246.5 421.54C252.38 417.88 252.16 414.78 246.17 416.66C243.07 417.66 241.96 417.33 243.07 415.67C243.84 414.34 243.4 413.23 242.07 413.23C240.74 413.23 240.3 412.01 241.18 410.57C242.51 408.46 243.07 408.46 243.73 410.57C244.4 412.45 245.84 412.56 248.94 410.9C252.16 409.13 253.49 409.35 254.48 411.9C255.15 413.67 257.03 414.67 258.7 414C260.36 413.45 262.24 414.89 263.13 417.55C263.9 420.1 265.46 421.54 266.56 420.87C268.67 419.54 268.23 414.78 265.35 408.13C264.35 405.69 264.68 403.03 266.45 401.48C268.56 399.37 268.78 399.93 267.56 404.03C266.34 408.02 266.79 409.02 269 408.35C270.67 407.8 272 405.91 272 404.14C272 397.71 284.19 395.94 285.85 402.14C286.4 404.25 286.07 404.58 284.96 403.03ZM483.13 420.65C481.35 421.32 481.58 421.76 483.9 421.87C486.56 422.09 487.23 423.65 486.45 427.86C485.79 431.18 484.68 432.51 483.79 431.07C482.8 429.41 480.91 430.07 478.14 433.18C475.92 435.62 475.15 437.61 476.48 437.61C477.81 437.61 479.47 436.39 480.14 434.84C481.13 432.73 481.8 432.73 482.68 434.73C483.46 436.17 485.46 436.83 487.12 436.17C488.89 435.5 490.33 436.06 490.33 437.39C490.33 438.72 492.22 439.83 494.65 439.83C496.98 439.83 499.53 440.82 500.31 442.04C501.08 443.37 502.63 443.82 503.74 443.04C504.85 442.38 505.18 443.26 504.52 445.04C503.85 446.92 501.86 448.92 500.2 449.58C496.65 450.91 493.88 447.47 495.87 444.26C496.65 443.04 496.32 442.04 495.21 442.04C493.99 442.04 490 441.38 486.12 440.6C480.02 439.38 479.36 439.83 480.69 443.26C481.91 446.26 481.47 446.81 479.03 445.26C476.48 443.71 476.37 444.04 478.69 446.81C482.91 452.02 479.03 453.68 473.82 449.03C471.38 446.7 466.28 444.37 462.62 443.93C462.17 443.86 459.92 443.53 455.86 442.93C457.93 447.12 459.07 449.45 459.3 449.91C461.63 454.9 463.84 456.56 467.06 456.01C470.38 455.45 470.16 455.79 466.17 457.56C458.86 460.77 453.31 458.45 451.54 451.35C450.77 448.14 448.99 444.7 447.66 443.93C446.11 442.93 446.44 441.27 448.77 438.94C452.76 434.95 458.41 434.29 460.41 437.61C462.51 440.94 468.17 440.27 468.17 436.72C468.17 434.95 465.17 432.84 461.52 432.07C455.09 430.63 451.43 422.09 457.19 422.09C458.52 422.09 458.97 421.1 458.19 419.88C457.42 418.66 457.86 417.66 459.19 417.66C460.41 417.66 461.52 418.77 461.52 420.21C461.52 423.65 468.39 428.63 473.15 428.63C479.25 428.74 477.7 424.98 470.38 421.76C464.18 418.99 461.74 413.67 465.17 410.23C467.61 407.91 469.72 408.46 478.03 414.11C482.91 417.44 484.9 419.88 483.13 420.65ZM292.5 418.1C296.6 416 327.19 416.55 330.85 418.77C331.95 419.54 332.95 418.33 333.06 416.11C333.06 412.34 333.17 412.34 335.39 416C337.83 420.32 344.04 421.32 344.04 417.33C344.04 415.89 344.59 415.22 345.14 415.89C351.46 422.09 342.71 424.42 314.67 423.87C312.74 423.82 303.09 423.6 285.74 423.2C285.41 419.54 285.22 417.51 285.18 417.11C284.74 413.78 285.41 411.01 286.51 411.01C287.73 411.01 288.51 411.79 288.4 412.67C287.51 418.1 288.84 419.88 292.5 418.1ZM361.44 418.99C363.32 417.77 374.4 425.75 372.85 427.19C369.64 430.18 347.36 422.98 348.03 419.32C348.8 415.11 356.23 414 358.44 417.66C359.22 418.99 360.55 419.54 361.44 418.99ZM355.12 432.84C355.12 434.29 353.68 436.06 351.79 436.83C350.02 437.5 348.47 440.38 348.47 443.15C348.47 449.91 342.48 455.12 340.49 450.02C339.27 446.81 338.72 446.81 336.61 449.69C334.17 452.79 325.97 455.34 316.11 456.12C313.56 456.34 309.79 457.78 307.79 459.44C304.69 462.1 304.14 461.99 304.14 458.89C304.14 456.12 302.81 455.56 298.59 456.67C295.16 457.56 293.05 457.12 293.05 455.56C293.05 454.23 291.61 453.13 289.84 453.13C287.84 453.13 287.07 454.46 287.84 456.45C288.62 458.56 287.73 459.78 285.29 459.78C282.86 459.78 281.97 458.56 282.75 456.56C284.41 452.24 280.42 449.91 276.76 452.9C273.33 455.79 268.67 451.91 268.67 446.26C268.67 444.26 266.68 442.04 264.24 441.38C261.58 440.71 259.8 438.39 259.8 435.5C259.8 432.73 260.8 431.29 262.13 432.18C263.35 432.96 265.79 432.4 267.56 430.96C269.34 429.52 271.88 429.08 273.44 430.07C274.88 430.96 282.19 431.85 289.62 431.96C305.47 432.18 311.23 434.62 305.58 438.72C302.25 441.27 302.14 441.71 305.36 444.37C309.9 448.14 312.78 444.15 311.34 436.39C310.56 432.51 311.23 430.96 313.67 430.96C320.43 430.96 324.09 433.73 324.09 438.94C324.09 441.82 324.97 444.26 326.19 444.26C327.3 444.26 328.08 441.6 327.85 438.39C327.3 431.29 345.03 424.64 349.8 430.3C351.13 431.85 352.9 432.51 353.68 431.63C354.45 430.85 355.12 431.4 355.12 432.84ZM457.08 464.21C457.08 465.87 455.64 465.76 452.32 464.1C449.77 462.66 447 462.44 446.22 463.43C445.56 464.43 443.45 465.65 441.79 465.98C439.13 466.54 439.13 466.09 441.46 463.21C443.67 460.55 443.67 459.78 441.57 459.78C439.46 459.78 439.46 459 441.23 456.78C442.67 455.12 443.45 453.46 443.23 452.9C442.9 452.35 444.23 453.57 446 455.56C447.88 457.56 451.1 459.78 453.2 460.44C455.31 461.22 457.08 462.88 457.08 464.21ZM173.58 475.29C164.82 475.29 161.72 472.85 166.04 469.53C171.03 465.76 170.81 465.76 174.57 469.64C178.9 473.85 178.56 475.29 173.58 475.29ZM455.2 476.18C456.75 475.18 457.19 475.63 456.2 477.18C455.31 478.62 452.65 479.73 450.32 479.73C447.66 479.73 446 481.28 446 483.61C445.89 486.49 445.45 486.82 444.12 484.6C443.12 482.94 442.67 479.17 443.23 476.29C443.89 472.74 443.23 470.86 441.23 470.75C439.57 470.64 440.24 469.75 442.67 468.75C449.77 465.98 453.87 467.53 453.2 472.97C452.87 476.07 453.54 477.18 455.2 476.18ZM454.87 489.81C454.87 489.26 457.08 486.6 459.85 483.94C463.29 480.72 463.95 478.84 462.07 478.17C460.52 477.62 459.3 476.18 459.3 475.07C459.3 473.96 461.18 474.3 463.62 475.74C466.84 477.73 467.39 479.39 465.73 482.28C463.73 486.04 454.87 492.25 454.87 489.81ZM421.28 484.16C420.07 484.16 420.18 479.95 421.4 475.85C422.06 473.74 428.16 475.85 427.71 478.06C427.16 480.95 423.83 484.05 421.28 484.16ZM466.61 496.24C461.96 497.46 461.29 498.23 463.84 499.79C469.05 503.11 464.07 502.22 456.97 498.57C453.43 496.68 449.99 495.13 449.32 495.24C448.77 495.24 448.22 494.69 448.22 494.13C448.22 493.47 448.22 491.92 448.22 490.59C448.22 488.7 449.1 488.7 451.32 490.59C453.2 492.25 457.75 492.58 463.51 491.7C473.82 490.03 476.37 493.8 466.61 496.24ZM430.93 505.22C430.26 504.66 430.93 504.11 432.48 504.11C433.92 504.11 434.58 503.11 433.81 501.89C432.04 499.01 434.69 494.8 437.24 496.46C438.46 497.13 439.35 499.01 439.35 500.67C439.35 503.78 432.92 507.32 430.93 505.22Z" id="aj5vLDL7k"></path><path d="M339.49 276.46C338.72 277.35 334.5 278.46 329.96 278.79C319.65 279.57 317.44 281.89 315.88 292.98C314.44 303.95 317.55 306.28 325.75 300.29C329.07 297.85 338.83 294.19 347.36 292.31C363.54 288.54 371.3 286.33 377.84 283.56C380.72 282.45 381.39 282.78 380.61 285C379.61 287.66 396.79 295.97 404.99 296.85C406.21 296.97 406.99 298.18 406.65 299.63C406.43 301.07 407.54 301.73 409.2 301.07C410.87 300.4 412.75 301.51 413.53 303.39C415.3 308.16 423.83 307.83 423.83 303.06C423.83 298.63 413.19 286.88 409.09 286.88C407.54 286.88 405.21 285 403.99 282.56C401.45 278.01 389.92 269.04 385.49 268.37C384.05 268.15 381.5 267.04 379.72 266.04C373.63 262.16 362.54 263.27 351.68 268.93C345.7 272.14 340.16 275.46 339.49 276.46Z" id="a6qgyxmSdz"></path><path d="M218.57 272.36C207.05 274.13 178.56 300.4 181.45 306.83C182.22 308.6 182.78 312.15 182.67 314.59C182.55 318.02 182.78 318.25 183.66 315.25C184.22 313.15 188.21 310.15 192.31 308.71C196.52 307.16 199.95 305.17 199.95 304.17C199.95 303.17 201.28 302.4 202.84 302.4C208.27 302.4 217.69 296.85 218.91 292.98C219.68 290.76 221.12 289.54 222.12 290.21C223.23 290.87 232.32 292.42 242.51 293.64C265.01 296.41 274.54 299.29 276.32 303.95C278.42 309.49 276.1 309.93 265.57 305.94C255.26 301.95 237.08 303.39 226.67 308.94C221.23 311.82 219.24 311.93 221.01 309.05C225.11 302.51 209.26 310.38 200.4 319.46C197.29 322.57 192.75 324.56 188.65 324.56C184.22 324.56 182.22 325.56 182.78 327.33C183.88 330.66 193.86 329.88 203.28 325.67C210.37 322.57 211.92 322.35 231.76 322.46C248.28 322.46 253.15 320.91 253.15 315.59C253.15 309.82 255.81 310.15 261.91 316.69C264.68 319.58 268.34 321.46 270 320.79C278.2 317.69 271.88 325.34 263.13 329.22C252.6 333.87 219.35 336.09 213.59 332.54C210.71 330.77 195.52 344.29 195.52 348.83C195.52 353.82 200.18 350.72 205.94 342.07C210.82 334.76 212.37 333.65 214.25 336.2C215.58 337.97 220.57 340.08 225.45 341.08C230.32 341.96 234.87 343.51 235.53 344.62C237.19 347.39 255.48 341.52 258.7 337.09C260.14 335.09 263.35 333.43 265.57 333.43C267.89 333.43 271.11 331.43 272.55 329C276.65 322.57 281.64 323.23 280.31 330.1C278.87 337.31 283.52 343.4 287.84 339.86C291.61 336.64 291.83 330.33 288.07 331.77C286.07 332.54 285.29 329.33 285.29 319.91C285.29 312.7 286.07 306.83 286.96 306.83C287.84 306.83 288.62 304.61 288.62 301.84C288.62 299.07 288.73 294.42 288.73 291.54C288.84 285.66 285.41 282.56 278.64 282.45C276.21 282.45 271.44 281.01 268.01 279.23C264.57 277.46 258.36 275.35 254.15 274.47C249.94 273.69 245.95 272.14 245.17 271.03C244.51 269.92 243.18 269.59 242.18 270.26C241.18 270.81 239.74 269.81 239.08 268.04C237.42 263.83 231.21 263.72 229.66 267.82C228.99 269.48 224.01 271.59 218.57 272.36ZM270.89 313.92C270.89 315.7 263.9 313.59 262.02 311.37C261.47 310.6 258.47 308.94 255.37 307.49C252.38 306.05 251.05 304.83 252.49 304.72C253.93 304.72 258.7 306.39 263.02 308.49C267.23 310.6 270.78 313.04 270.89 313.92Z" id="bIAU5Raq"></path><path d="M336.61 319.13C341.26 318.36 346.47 315.7 348.14 313.37C351.9 308.16 355.56 307.61 353.57 312.59C351.68 317.58 356.23 319.58 365.76 318.02C370.3 317.25 377.95 317.36 382.83 318.36C403.77 322.46 415.3 325.45 416.3 327.11C418.18 330.22 421.62 329.22 421.62 325.67C421.62 323.68 419.51 322.35 416.19 322.35C411.2 322.35 403.88 317.25 403.88 313.81C403.88 304.39 354.34 297.74 339.49 305.17C325.75 312.15 323.75 321.46 336.61 319.13Z" id="bxikSLbFr"></path><path d="M313.78 312.59C311.78 311.82 311.12 312.26 312.12 313.81C314.11 317.14 314.55 333.43 312.56 333.43C309.79 333.43 311.45 343.29 315 347.84C318.32 351.83 318.21 351.94 314.78 349.28C311.01 346.4 304.47 353.05 307.9 356.37C308.68 357.15 308.13 357.81 306.57 357.81C304.69 357.81 304.91 358.92 307.24 361.25C311.78 365.79 315.11 363.58 313.56 357.26C312.34 352.27 312.34 352.27 317.1 356.48C319.76 358.81 321.87 362.47 321.87 364.68C321.87 370.11 325.3 371.78 330.85 368.78C335.39 366.46 335.39 366.24 331.51 363.02C329.18 361.14 328.85 360.47 330.51 361.36C332.84 362.58 333.28 362.02 332.18 359.14C331.4 356.93 330.74 354.38 330.74 353.38C330.74 352.38 328.3 351.83 325.19 352.16C322.2 352.49 319.65 351.94 319.65 350.83C319.65 349.06 324.42 348.06 329.96 348.72C331.29 348.83 333.06 347.5 333.73 345.51C334.5 343.63 334.17 342.63 333.06 343.29C331.95 343.96 329.96 341.08 328.52 336.75C326.86 331.77 324.97 329.55 323.31 330.55C321.98 331.32 322.09 330.33 323.75 328.33C326.08 325.56 326.19 324.56 324.09 324.56C322.2 324.56 321.76 322.24 322.87 316.8C324.2 309.38 321.65 306.16 318.43 311.37C317.66 312.7 315.55 313.26 313.78 312.59Z" id="aIWBqOnVs"></path><path d="M345.25 334.2C346.58 333.65 350.46 334.32 353.9 335.65C363.54 339.3 374.96 340.63 383.16 339.08C395.24 336.75 389.81 333.98 370.08 332.32C359.99 331.43 349.91 329.77 347.69 328.55C344.7 327 343.92 327 345.03 328.77C345.81 330.1 345.59 331.21 344.37 331.21C343.15 331.21 341.82 330.1 341.38 328.89C340.93 327.56 339.93 327.22 339.16 328C337.05 329.99 342.37 335.31 345.25 334.2Z" id="dfRyPde36"></path><path d="M277.54 350.05C278.76 350.83 279.75 355.37 279.75 360.14C279.75 365.35 280.86 368.9 282.3 368.9C283.74 368.9 284.41 368.34 283.63 367.68C282.97 366.9 283.41 362.91 284.52 358.81C285.85 353.82 285.85 349.83 284.41 347.28C283.08 345.18 282.08 344.62 282.08 346.17C281.97 347.73 280.86 348.95 279.64 348.95C278.31 348.95 277.87 347.95 278.64 346.73C279.42 345.51 278.98 344.51 277.65 344.51C276.43 344.51 275.32 345.4 275.32 346.62C275.32 347.73 276.32 349.28 277.54 350.05Z" id="a2GFv7bRuY"></path><path d="M256.15 376.87C258.14 377.65 259.8 379.53 259.8 381.09C259.8 382.64 261.36 385.19 263.24 386.74C266.34 389.29 266.68 388.4 266.01 378.87C265.23 366.79 262.46 364.46 256.59 371C252.93 375.1 252.93 375.54 256.15 376.87Z" id="a1GgYzebz7"></path><path d="M237.42 388.84C236.75 388.84 236.2 390.29 236.2 392.17C236.2 397.27 238.97 396.16 246.39 388.29C252.16 382.19 253.6 381.64 255.48 384.41C257.48 387.18 257.7 387.07 257.14 383.52C256.15 377.1 252.49 376.99 245.28 383.3C241.63 386.3 238.19 388.84 237.42 388.84Z" id="f4mDCCA5dr"></path><path d="M191.64 422.76C196.08 426.31 200.18 439.05 198.4 443.6C197.52 445.81 197.85 446.7 199.4 445.7C200.62 444.93 202.28 445.7 202.95 447.47C203.61 449.25 202.95 451.13 201.51 451.69C199.51 452.46 199.51 452.79 201.62 452.9C203.17 453.02 204.39 455.01 204.39 457.45C204.39 459.78 205.5 462.44 206.83 463.21C209.6 464.99 208.27 448.92 204.72 438.72C203.39 435.06 201.51 428.63 200.51 424.31C198.74 416.55 192.86 412.89 189.98 417.66C189.09 419.1 189.87 421.32 191.64 422.76Z" id="bLTbwmQjV"></path><path d="M272.99 490.81C275.32 490.81 277.54 492.03 278.09 493.58C278.87 495.69 281.08 495.8 288.29 493.91C294.16 492.36 298.04 492.14 298.93 493.47C299.59 494.69 301.92 495.13 304.03 494.58C306.24 494.02 309.46 494.47 311.45 495.57C314 497.02 315.22 496.35 316.22 493.25C317.55 489.26 318.21 489.15 325.08 492.03C330.96 494.47 332.84 494.58 333.73 492.47C334.61 490.25 334.84 490.25 334.95 492.47C335.28 496.68 340.38 495.8 344.59 490.81C346.7 488.37 347.47 486.38 346.25 486.38C345.03 486.38 344.04 484.94 344.04 483.16C344.04 480.61 341.38 480.06 331.29 480.83C324.31 481.39 318.54 481.83 318.54 481.94C318.54 482.39 288.07 484.05 281.3 484.05C277.87 484.05 271.22 482.72 266.34 481.06C261.58 479.39 257.59 478.4 257.59 478.73C257.59 481.39 269.67 490.81 272.99 490.81Z" id="cf3gMWub"></path><path d="M274.66 511.09C272 508.99 271.22 509.65 270.11 515.19C268.45 523.28 264.24 524.06 264.24 516.3C264.24 513.2 263.35 510.76 262.35 510.76C259.36 510.76 262.8 524.72 266.01 525.72C267.45 526.28 268.67 525.72 268.67 524.5C268.67 523.28 270.67 521.84 273.1 521.18C275.54 520.51 277.54 520.96 277.54 522.17C277.54 523.39 278.53 523.73 279.86 522.84C281.08 522.06 281.86 519.85 281.53 517.74C281.19 515.75 281.86 512.75 282.86 511.09C283.85 509.43 283.74 507.21 282.52 505.99C281.08 504.55 279.86 505.55 279.09 508.76C277.98 512.75 277.09 513.2 274.66 511.09Z" id="b588P8riC"></path><path d="M286.4 523.95C287.62 528.16 287.51 530.26 286.29 529.49C285.07 528.82 284.19 529.16 284.19 530.26C284.19 532.26 293.16 535.7 294.6 534.37C297.93 530.93 297.82 518.85 294.38 521.62C290.95 524.5 290.73 524.28 291.94 519.18C293.5 513.09 287.73 508.43 285.63 514.08C284.96 515.75 285.29 520.18 286.4 523.95Z" id="gabIlQPtL"></path><path d="M125.03 251.97C127.47 249.09 127.25 248.75 123.15 250.08C119.05 251.3 118.49 250.86 119.49 247.09C121.26 240.22 119.16 241.66 115.28 249.97C111.29 258.17 118.6 259.73 125.03 251.97Z" id="aHoMrau41"></path><path d="M248.17 123.07C248.5 124.18 247.72 125.07 246.5 125.07C245.28 125.07 244.29 126.4 244.29 128.17C244.29 129.83 242.85 132.38 240.96 133.93C239.19 135.48 237.64 137.81 237.64 139.14C237.75 142.69 246.17 132.05 249.94 123.63C251.6 119.75 254.71 114.98 256.7 112.99C258.7 110.99 259.8 108.77 259.14 108.11C258.47 107.56 255.59 110.22 252.82 114.09C249.94 117.97 247.83 122.07 248.17 123.07Z" id="hS9fjy3WS"></path><path d="M416.74 130.72C417.52 129.72 416.08 127.51 413.3 125.62C410.53 123.85 408.32 121.08 408.32 119.53C408.32 117.97 406.77 116.09 404.99 115.42C402.22 114.32 402 114.87 403.77 117.86C408.21 125.51 415.08 132.27 416.74 130.72Z" id="m6VAjVxD5"></path><path d="M350.57 150.67C349.02 152.55 348.47 154.66 349.24 155.43C350.02 156.21 350.8 155.43 350.91 153.66C351.02 152 351.9 153 352.79 156.1C354.45 161.75 355.34 162.08 362.32 159.31C364.87 158.32 366.2 158.87 366.2 160.98C366.2 162.64 368.42 164.08 371.19 164.3C373.96 164.41 374.85 163.97 373.29 163.41C371.52 162.75 371.19 161.42 372.41 159.76C378.95 151.56 373.74 132.27 366.98 139.14C366.31 139.7 367.97 140.8 370.63 141.69C374.29 142.8 374.74 143.8 372.74 146.24C371.41 147.9 370.86 150.34 371.63 151.56C372.52 152.89 372.19 153.88 371.19 153.88C370.08 153.88 367.86 151.44 366.31 148.56C363.98 144.13 355.56 138.37 351.57 138.37C350.91 138.37 351.02 140.36 351.79 142.91C352.57 145.35 352.02 148.9 350.57 150.67Z" id="c2KDqXAsMB"></path><path d="M178.45 165.41C179.45 167.74 179.67 167.74 179.78 165.41C179.89 163.75 180.78 162.97 181.67 163.53C182.67 164.08 184.55 162.2 185.88 159.2C188.87 152.89 187.1 152.55 181.45 158.32C179.12 160.53 177.9 163.75 178.45 165.41Z" id="cWy2gF0rA"></path><path d="M150.64 168.85C151.63 171.51 150.97 172.06 148.31 170.95C145.98 170.06 143.87 171.06 142.54 173.5C140.88 176.6 141.44 177.38 145.54 177.71C149.42 178.04 151.08 176.71 152.19 172.61C152.85 169.51 154.51 167.63 155.73 168.29C156.84 169.07 157.84 168.07 157.84 166.19C157.84 162.64 156.62 162.31 151.85 164.19C150.41 164.74 149.86 166.85 150.64 168.85Z" id="bOAfAWtzY"></path><path d="M133.46 178.27C136.12 183.25 133.9 185.36 128.69 182.59C125.37 180.7 124.59 181.15 124.59 184.8C124.59 187.35 125.37 189.24 126.25 189.13C130.57 188.35 133.23 189.68 133.9 192.78C134.45 195.44 135.23 195.11 137.45 191.45C139.11 188.79 139.33 187.35 138 188.13C136.78 188.91 135.67 188.57 135.67 187.24C135.67 185.91 137.22 184.14 139.11 183.47C141.99 182.37 141.77 181.59 138 178.93C135.45 177.16 134.01 174.83 134.68 173.72C136.12 171.28 134.9 170.95 132.79 173.06C132.02 173.83 132.35 176.16 133.46 178.27Z" id="actnM8qdQ"></path><path d="M391.36 183.36C392.58 182.59 393.02 183.92 392.25 186.58C391.47 189.9 391.91 190.9 394.13 190.01C396.68 189.13 396.57 187.69 393.36 182.26C387.48 172.17 383.6 169.73 386.71 177.93C388.15 181.59 390.14 184.03 391.36 183.36Z" id="a2DMp04j3"></path><path d="M405.55 190.24C401.33 188.79 400.12 192.56 404.11 195C407.43 197.11 410.31 192.12 408.87 186.91C408.21 184.36 405.88 182.7 403.11 182.7C398.56 182.81 398.56 182.92 403.88 187.24C407.21 189.9 407.87 191.12 405.55 190.24Z" id="a21KPU9Ib1"></path><path d="M428.49 195.44C429.6 198.55 430.04 202.87 429.26 205.2C428.49 207.53 429.04 209.3 430.48 209.3C431.81 209.3 432.37 210.19 431.7 211.4C431.04 212.51 431.37 214.06 432.7 214.84C435.69 216.72 435.25 203.42 431.92 194.23C430.48 190.12 428.6 187.58 427.82 188.35C427.05 189.13 427.27 192.34 428.49 195.44Z" id="e68QYoF6do"></path><path d="M460.41 213.73C461.29 213.73 460.52 205.97 459.19 202.65C458.97 201.98 458.86 200.76 459.08 199.88C459.41 197.77 458.97 197.77 455.09 200.32C452.1 202.09 456.75 213.73 460.41 213.73Z" id="i3dOKKFPhb"></path><path d="M470.38 213.73C471.6 213.73 472.6 212.84 472.6 211.63C472.6 210.52 476.37 210.07 480.91 210.52C481.47 210.58 484.24 210.92 489.22 211.52C483.9 209.65 480.95 208.62 480.36 208.41C475.48 206.75 473.15 205.2 475.26 205.09C477.25 204.98 479.58 203.87 480.36 202.65C482.8 198.66 477.14 200.32 472.6 204.87C467.83 209.63 466.84 213.73 470.38 213.73Z" id="fNMs0qA8p"></path><path d="M460.41 234.46C456.31 238.56 459.96 244.43 464.29 240.77C466.06 239.33 468.17 238.78 468.94 239.67C469.72 240.44 470.38 239.89 470.38 238.45C470.38 237.01 468.94 235.9 467.06 235.9C465.28 235.9 463.73 235.01 463.73 233.9C463.73 232.79 465.73 232.35 468.17 233.02C470.6 233.68 472.6 235.23 472.6 236.56C472.6 237.78 473.15 238.34 473.71 237.67C475.81 235.68 472.27 229.25 469.16 229.25C467.5 229.25 465.06 227.47 463.73 225.37C461.52 221.93 461.29 222.04 462.29 226.48C462.85 229.25 462.07 232.91 460.41 234.46Z" id="a4UkkJcS2n"></path><path d="M478.25 261.28C483.46 262.28 483.9 262.16 480.36 260.5C477.92 259.28 476.92 258.29 478.14 258.17C479.25 258.17 476.59 255.51 472.16 252.52C464.18 247.09 461.52 245.98 461.52 247.98C461.52 251.3 472.71 260.17 478.25 261.28Z" id="dluifHxVu"></path><path d="M472.6 266.93C473.82 266.93 474.82 268.26 474.82 269.92C474.82 274.47 482.13 280.12 487.67 279.68C488 279.65 489.62 279.5 492.55 279.23C489.56 276.44 487.89 274.89 487.56 274.58C479.47 267.04 470.38 261.72 470.38 264.49C470.38 265.82 471.38 266.93 472.6 266.93Z" id="c1wa5ligA9"></path><path d="M506.74 297.96C510.61 297.85 510.84 297.52 508.07 295.75C505.18 293.86 505.29 293.64 508.62 293.53C510.73 293.53 512.5 292.42 512.5 291.09C512.5 289.76 511.28 289.21 509.73 289.65C508.18 290.21 504.74 289.87 502.08 288.88C497.54 287.21 497.31 287.43 499.64 292.53C501.19 295.75 503.96 297.96 506.74 297.96Z" id="a2RRKMsect"></path><path d="M417.07 549.44C419.18 550.77 418.96 556.31 416.52 558.75C413.86 561.3 414.75 566.51 417.52 564.84C419.18 563.85 419.51 564.29 418.29 566.17C417.18 567.95 418.4 570.5 421.84 573.05C424.72 575.37 425.83 577.15 424.28 577.26C422.61 577.26 421.95 578.25 422.73 579.47C423.5 580.8 424.94 581.25 426.05 580.58C428.38 579.14 427.49 585.46 425.05 587.68C423.94 588.67 423.83 587.9 424.72 586.12C425.61 584.24 424.83 584.68 422.95 587.01C419.18 591.67 423.17 599.53 431.48 603.3C434.47 604.74 434.92 605.74 433.14 606.96C431.7 607.85 430.48 607.51 430.48 606.18C430.48 604.97 429.26 603.86 427.93 603.86C426.49 603.86 425.94 604.52 426.72 605.3C427.6 606.07 427.16 608.07 425.94 609.51C424.28 611.5 424.39 612.83 426.27 613.94C427.93 615.05 428.38 614.72 427.38 613.06C426.49 611.61 426.83 610.51 428.16 610.51C429.38 610.51 430.48 611.73 430.59 613.28C430.59 614.83 432.04 613.61 433.7 610.51C435.8 606.74 436.14 603.86 434.58 600.98C433.03 598.2 433.25 595.88 435.14 593.66C437.35 591 437.35 590.45 435.03 591C433.48 591.33 431.92 589.89 431.48 587.79C430.59 582.24 439.68 580.58 447.99 584.9C456.42 589.23 458.08 595.43 456.31 615.16C454.98 629.35 455.2 630.46 459.19 630.46C462.07 630.46 463.29 629.24 462.74 626.47C461.52 620.26 466.5 612.5 470.27 614.83C472.71 616.38 472.82 617.49 470.83 619.93C469.39 621.7 468.83 623.81 469.72 624.58C470.49 625.36 469.94 626.02 468.5 626.02C467.06 626.02 465.95 627.13 465.95 628.46C465.95 630.23 466.95 630.12 469.27 628.24C471.16 626.69 472.6 624.14 472.6 622.48C472.6 620.7 473.71 619.37 475.15 619.37C476.81 619.37 476.48 617.93 474.26 615.49C472.38 613.39 470.38 609.62 469.72 607.18C468.94 603.64 468.61 603.52 468.39 606.63C468.17 610.28 463.73 612.39 463.73 608.84C463.95 599.31 479.03 603.75 479.47 613.5C479.69 617.27 480.02 617.49 480.8 614.39C481.35 612.28 483.46 610.51 485.46 610.51C488.67 610.62 488.78 610.84 485.9 612.72C483.02 614.61 483.13 614.83 486.23 614.94C491.55 614.94 492.55 619.71 488.34 624.8C485.34 628.46 485.9 628.35 491.22 624.25C497.31 619.59 497.87 619.48 501.75 623.03C504.08 625.03 506.51 626.02 507.29 625.25C508.18 624.47 507.62 623.81 506.07 623.81C504.63 623.81 503.96 622.81 504.74 621.59C505.52 620.26 507.07 619.93 508.18 620.59C509.4 621.26 510.28 620.59 510.28 618.93C510.39 616.71 510.84 616.82 512.28 619.15C513.38 620.92 513.72 623.81 513.05 625.69C512.06 628.13 512.72 628.57 515.38 627.57C517.37 626.8 519.48 627.02 520.15 628.02C521.25 629.79 572.35 631.45 572.35 629.68C572.35 629.13 567.14 627.46 560.71 625.91C554.28 624.36 545.64 620.26 541.31 616.93C533.22 610.4 520.59 605.19 503.85 601.42C498.42 600.2 490.44 596.54 486.12 593.22C465.73 577.59 460.41 575.04 448.88 575.04C432.37 575.04 423.17 562.63 425.72 543.68C426.16 540.13 419.95 540.46 417.63 544.12C416.19 546.45 415.96 548.77 417.07 549.44Z" id="dcU8ElHXJ"></path><path d="M123.04 624.91C122.18 625.28 117.9 627.09 110.18 630.35C121.09 630.21 127.15 630.14 128.36 630.12C143.32 630.01 146.2 629.46 145.2 626.69C144.54 624.91 146.09 620.59 148.75 617.05C154.4 609.29 150.86 608.4 141.88 615.16C138.55 617.6 130.13 622.03 123.04 624.91Z" id="l2R4jhwZrI"></path></defs><g><g><g><use xlink:href="#aj5vLDL7k" opacity="1" fill="#000000" fill-opacity="1"></use><g><use xlink:href="#aj5vLDL7k" opacity="1" fill-opacity="0" stroke="#000000" stroke-width="1" stroke-opacity="0"></use></g></g><g><use xlink:href="#a6qgyxmSdz" opacity="1" fill="#000000" fill-opacity="1"></use><g><use xlink:href="#a6qgyxmSdz" opacity="1" fill-opacity="0" stroke="#000000" stroke-width="1" stroke-opacity="0"></use></g></g><g><use xlink:href="#bIAU5Raq" opacity="1" fill="#000000" fill-opacity="1"></use><g><use xlink:href="#bIAU5Raq" opacity="1" fill-opacity="0" stroke="#000000" stroke-width="1" stroke-opacity="0"></use></g></g><g><use xlink:href="#bxikSLbFr" opacity="1" fill="#000000" fill-opacity="1"></use><g><use xlink:href="#bxikSLbFr" opacity="1" fill-opacity="0" stroke="#000000" stroke-width="1" stroke-opacity="0"></use></g></g><g><use xlink:href="#aIWBqOnVs" opacity="1" fill="#000000" fill-opacity="1"></use><g><use xlink:href="#aIWBqOnVs" opacity="1" fill-opacity="0" stroke="#000000" stroke-width="1" stroke-opacity="0"></use></g></g><g><use xlink:href="#dfRyPde36" opacity="1" fill="#000000" fill-opacity="1"></use><g><use xlink:href="#dfRyPde36" opacity="1" fill-opacity="0" stroke="#000000" stroke-width="1" stroke-opacity="0"></use></g></g><g><use xlink:href="#a2GFv7bRuY" opacity="1" fill="#000000" fill-opacity="1"></use><g><use xlink:href="#a2GFv7bRuY" opacity="1" fill-opacity="0" stroke="#000000" stroke-width="1" stroke-opacity="0"></use></g></g><g><use xlink:href="#a1GgYzebz7" opacity="1" fill="#000000" fill-opacity="1"></use><g><use xlink:href="#a1GgYzebz7" opacity="1" fill-opacity="0" stroke="#000000" stroke-width="1" stroke-opacity="0"></use></g></g><g><use xlink:href="#f4mDCCA5dr" opacity="1" fill="#000000" fill-opacity="1"></use><g><use xlink:href="#f4mDCCA5dr" opacity="1" fill-opacity="0" stroke="#000000" stroke-width="1" stroke-opacity="0"></use></g></g><g><use xlink:href="#bLTbwmQjV" opacity="1" fill="#000000" fill-opacity="1"></use><g><use xlink:href="#bLTbwmQjV" opacity="1" fill-opacity="0" stroke="#000000" stroke-width="1" stroke-opacity="0"></use></g></g><g><use xlink:href="#cf3gMWub" opacity="1" fill="#000000" fill-opacity="1"></use><g><use xlink:href="#cf3gMWub" opacity="1" fill-opacity="0" stroke="#000000" stroke-width="1" stroke-opacity="0"></use></g></g><g><use xlink:href="#b588P8riC" opacity="1" fill="#000000" fill-opacity="1"></use><g><use xlink:href="#b588P8riC" opacity="1" fill-opacity="0" stroke="#000000" stroke-width="1" stroke-opacity="0"></use></g></g><g><use xlink:href="#gabIlQPtL" opacity="1" fill="#000000" fill-opacity="1"></use><g><use xlink:href="#gabIlQPtL" opacity="1" fill-opacity="0" stroke="#000000" stroke-width="1" stroke-opacity="0"></use></g></g><g><use xlink:href="#aHoMrau41" opacity="1" fill="#000000" fill-opacity="1"></use><g><use xlink:href="#aHoMrau41" opacity="1" fill-opacity="0" stroke="#000000" stroke-width="1" stroke-opacity="0"></use></g></g><g><use xlink:href="#hS9fjy3WS" opacity="1" fill="#000000" fill-opacity="1"></use><g><use xlink:href="#hS9fjy3WS" opacity="1" fill-opacity="0" stroke="#000000" stroke-width="1" stroke-opacity="0"></use></g></g><g><use xlink:href="#m6VAjVxD5" opacity="1" fill="#000000" fill-opacity="1"></use><g><use xlink:href="#m6VAjVxD5" opacity="1" fill-opacity="0" stroke="#000000" stroke-width="1" stroke-opacity="0"></use></g></g><g><use xlink:href="#c2KDqXAsMB" opacity="1" fill="#000000" fill-opacity="1"></use><g><use xlink:href="#c2KDqXAsMB" opacity="1" fill-opacity="0" stroke="#000000" stroke-width="1" stroke-opacity="0"></use></g></g><g><use xlink:href="#cWy2gF0rA" opacity="1" fill="#000000" fill-opacity="1"></use><g><use xlink:href="#cWy2gF0rA" opacity="1" fill-opacity="0" stroke="#000000" stroke-width="1" stroke-opacity="0"></use></g></g><g><use xlink:href="#bOAfAWtzY" opacity="1" fill="#000000" fill-opacity="1"></use><g><use xlink:href="#bOAfAWtzY" opacity="1" fill-opacity="0" stroke="#000000" stroke-width="1" stroke-opacity="0"></use></g></g><g><use xlink:href="#actnM8qdQ" opacity="1" fill="#000000" fill-opacity="1"></use><g><use xlink:href="#actnM8qdQ" opacity="1" fill-opacity="0" stroke="#000000" stroke-width="1" stroke-opacity="0"></use></g></g><g><use xlink:href="#a2DMp04j3" opacity="1" fill="#000000" fill-opacity="1"></use><g><use xlink:href="#a2DMp04j3" opacity="1" fill-opacity="0" stroke="#000000" stroke-width="1" stroke-opacity="0"></use></g></g><g><use xlink:href="#a21KPU9Ib1" opacity="1" fill="#000000" fill-opacity="1"></use><g><use xlink:href="#a21KPU9Ib1" opacity="1" fill-opacity="0" stroke="#000000" stroke-width="1" stroke-opacity="0"></use></g></g><g><use xlink:href="#e68QYoF6do" opacity="1" fill="#000000" fill-opacity="1"></use><g><use xlink:href="#e68QYoF6do" opacity="1" fill-opacity="0" stroke="#000000" stroke-width="1" stroke-opacity="0"></use></g></g><g><use xlink:href="#i3dOKKFPhb" opacity="1" fill="#000000" fill-opacity="1"></use><g><use xlink:href="#i3dOKKFPhb" opacity="1" fill-opacity="0" stroke="#000000" stroke-width="1" stroke-opacity="0"></use></g></g><g><use xlink:href="#fNMs0qA8p" opacity="1" fill="#000000" fill-opacity="1"></use><g><use xlink:href="#fNMs0qA8p" opacity="1" fill-opacity="0" stroke="#000000" stroke-width="1" stroke-opacity="0"></use></g></g><g><use xlink:href="#a4UkkJcS2n" opacity="1" fill="#000000" fill-opacity="1"></use><g><use xlink:href="#a4UkkJcS2n" opacity="1" fill-opacity="0" stroke="#000000" stroke-width="1" stroke-opacity="0"></use></g></g><g><use xlink:href="#dluifHxVu" opacity="1" fill="#000000" fill-opacity="1"></use><g><use xlink:href="#dluifHxVu" opacity="1" fill-opacity="0" stroke="#000000" stroke-width="1" stroke-opacity="0"></use></g></g><g><use xlink:href="#c1wa5ligA9" opacity="1" fill="#000000" fill-opacity="1"></use><g><use xlink:href="#c1wa5ligA9" opacity="1" fill-opacity="0" stroke="#000000" stroke-width="1" stroke-opacity="0"></use></g></g><g><use xlink:href="#a2RRKMsect" opacity="1" fill="#000000" fill-opacity="1"></use><g><use xlink:href="#a2RRKMsect" opacity="1" fill-opacity="0" stroke="#000000" stroke-width="1" stroke-opacity="0"></use></g></g><g><use xlink:href="#dcU8ElHXJ" opacity="1" fill="#000000" fill-opacity="1"></use><g><use xlink:href="#dcU8ElHXJ" opacity="1" fill-opacity="0" stroke="#000000" stroke-width="1" stroke-opacity="0"></use></g></g><g><use xlink:href="#l2R4jhwZrI" opacity="1" fill="#000000" fill-opacity="1"></use><g><use xlink:href="#l2R4jhwZrI" opacity="1" fill-opacity="0" stroke="#000000" stroke-width="1" stroke-opacity="0"></use></g></g></g></g></svg>